<svg width="122" height="30" viewBox="0 0 122 30" fill="none" xmlns="http://www.w3.org/2000/svg">
<path d="M14.1392 28.7431C12.9545 29.6046 11.2683 29.9985 9.61741 29.9985C3.76789 30 0 24.0074 0 14.9993C0 6.10032 3.87558 0 9.65281 0C11.016 0 12.5237 0.250799 13.7084 1.00467V3.87558C12.3452 2.62011 10.9452 2.33243 9.6897 2.33243C5.27563 2.33243 2.54782 7.46349 2.54782 14.9993C2.54782 22.535 5.31104 27.6322 9.68822 27.6322C11.1591 27.6322 12.7391 27.166 14.1377 25.8013V28.7431H14.1392Z" fill="#575757"/>
<path d="M28.6354 29.2815L26.9491 21.1718H20.4534L18.7672 29.2815H16.2916L22.5719 0.538452H24.8321L31.1124 29.2815H28.6354ZM24.7244 9.50968C24.1859 6.85416 23.7551 4.16324 23.6843 3.76786C23.6489 4.05554 23.1812 6.88957 22.6442 9.50968L20.778 19.0194H26.6275L24.7244 9.50968Z" fill="#575757"/>
<path d="M35.0588 29.2815V2.72631H30.1785V0.538452H42.416V2.72778H37.5358V29.283H35.0588V29.2815Z" fill="#575757"/>
<path d="M45.2855 29.2815V0.538452H54.7952V2.6909H47.6902V12.7022H53.6474V14.8561H47.6902V27.1291H54.7952V29.2815H45.2855Z" fill="#575757"/>
<path d="M69.9744 16.9732H66.2065V14.7839H72.2714V25.6213C70.9437 28.42 68.3958 30 65.3818 30C59.82 30 56.2675 24.1505 56.2675 15.0007C56.266 5.95722 60.1785 0 65.4895 0C67.6788 0 69.4005 0.573887 70.8728 1.72314V4.84485C69.2943 3.01549 67.5357 2.26162 65.5972 2.26162C61.3263 2.33391 58.7784 7.50037 58.7784 15.0007C58.7784 22.3565 61.1831 27.7399 65.3818 27.7399C67.4266 27.7399 69.2574 26.5921 69.9744 24.7258V16.9732Z" fill="#575757"/>
<path d="M75.2855 14.9993C75.2855 5.13105 78.7303 0 84.149 0C89.5323 0 92.9771 4.95254 92.9771 14.9993C92.9771 24.5813 89.64 29.9985 84.149 29.9985C78.6226 30 75.2855 24.5813 75.2855 14.9993ZM90.4647 14.9993C90.4647 7.1404 87.9892 2.22474 84.149 2.22474C80.2734 2.22474 77.7979 7.1404 77.7979 14.9993C77.7979 22.9304 80.2734 27.703 84.149 27.703C87.9892 27.703 90.4647 22.9304 90.4647 14.9993Z" fill="#575757"/>
<path d="M105.01 29.2815L100.703 15.6454H98.2631V29.2815H95.9307V0.573853H100.883C104.436 0.573853 106.122 3.94784 106.122 7.93112C106.122 8.54041 106.122 13.5652 102.748 15.2161L107.521 29.283H105.01V29.2815ZM100.56 13.6007C102.426 13.6007 103.825 11.4113 103.825 7.82342C103.825 4.80941 102.785 2.65549 100.703 2.65549H98.2277V13.6007H100.56Z" fill="#575757"/>
<path d="M113.442 29.2815V16.8655L107.736 0.538452H110.284L114.661 14.3545L119.04 0.538452H121.623L115.918 16.8655V29.2815H113.442Z" fill="#575757"/>
</svg>
