<svg width="212" height="30" viewBox="0 0 212 30" fill="none" xmlns="http://www.w3.org/2000/svg">
<g clip-path="url(#clip0)">
<path fill-rule="evenodd" clip-rule="evenodd" d="M122.795 6.69424C122.961 6.63488 123.123 6.5601 123.278 6.46991C123.514 6.33282 123.734 6.16064 123.932 5.95287C125.047 4.77841 124.999 2.92195 123.825 1.80637C122.65 0.690782 120.794 0.738666 119.678 1.91312C119.481 2.12072 119.32 2.34981 119.196 2.59218C119.114 2.75173 119.047 2.91703 118.996 3.08593L118.92 3.40406L118 7.93871L122.482 6.78689L122.795 6.69424Z" fill="#FF8C00"/>
<g clip-path="url(#clip1)">
<path d="M0 29.3312V1.09149H9.54256V3.23973H2.35958V12.7461H8.45107V14.8581H2.35958V29.3298H0V29.3312Z" fill="#575757"/>
<path d="M10.5284 20C10.5284 13.8028 12.7114 10.2113 16.4433 10.2113C20.2113 10.2113 22.3943 13.8028 22.3943 20C22.3943 26.2319 20.2113 29.7886 16.4433 29.7886C12.7114 29.7886 10.5284 26.2319 10.5284 20ZM20.2113 20C20.2113 15.2113 18.8028 12.1482 16.4433 12.1482C14.1199 12.1482 12.7114 15.2113 12.7114 20C12.7114 24.9653 14.0851 27.817 16.4433 27.817C18.8738 27.817 20.2113 24.9653 20.2113 20Z" fill="#575757"/>
<path d="M25.1404 29.2965V0H27.3581V29.2965H25.1404Z" fill="#575757"/>
<path d="M30.3156 29.2965V0H32.5333V29.2965H30.3156Z" fill="#575757"/>
<path d="M35.2808 20C35.2808 13.8028 37.4638 10.2113 41.1957 10.2113C44.9638 10.2113 47.1468 13.8028 47.1468 20C47.1468 26.2319 44.9638 29.7886 41.1957 29.7886C37.4638 29.7886 35.2808 26.2319 35.2808 20ZM44.9638 20C44.9638 15.2113 43.5553 12.1482 41.1957 12.1482C38.8723 12.1482 37.4638 15.2113 37.4638 20C37.4638 24.9653 38.8376 27.817 41.1957 27.817C43.6262 27.817 44.9638 24.9653 44.9638 20Z" fill="#575757"/>
<path d="M58.0269 29.2965L56.4071 18.0284C56.3014 17.0773 56.0553 14.5426 55.9134 13.4163C55.8078 14.7539 55.5617 17.1844 55.4198 18.0646L53.8347 29.2965H51.617L48.4844 10.7035H50.5964L52.1815 22.112C52.2872 22.9574 52.5333 25.6326 52.7099 27.0773C52.8865 25.7745 53.0979 23.3092 53.2383 22.2886L54.8929 10.7035H56.9702L58.6248 22.3581C58.7652 23.3787 58.9766 25.6673 59.1184 27.0758C59.3298 25.5269 59.5411 23.0269 59.6815 22.1106L61.2667 10.7021H63.3787L60.2447 29.2936H58.0269V29.2965Z" fill="#575757"/>
<path d="M81.3361 1.12623H83.7304V20.8092C83.7304 26.1262 81.8645 29.9291 77.0049 29.9291C72.1453 29.9291 70.2446 26.1262 70.2446 20.8092V1.12623H72.639V20.6326C72.639 24.6468 73.6595 27.6752 76.9702 27.6752C80.3156 27.6752 81.3361 24.6468 81.3361 20.6326V1.12623Z" fill="#575757"/>
<path d="M86.3709 26.4085C87.322 27.2539 88.2021 27.7461 89.1532 27.7461C90.773 27.7461 91.7241 26.4085 91.7241 24.1893C91.7241 22.1815 90.8787 21.1957 89.8929 20.4922C89.6468 20.2808 89.295 20.1042 89.0127 19.9291C87.1815 18.7319 86.3014 17.2525 86.3014 14.9291C86.3014 11.9354 88.0979 10.2113 90.0333 10.2113H90.3503C91.1248 10.2113 91.8298 10.3518 92.568 10.8092V13.2035C91.6532 12.3943 90.9829 12.183 90.3503 12.183C89.1879 12.183 88.273 13.0284 88.273 14.8943C88.273 16.9716 88.9766 17.4653 90.4213 18.4149C92.322 19.5064 93.7667 21.0915 93.7667 24.1546C93.7667 28.134 91.6894 29.7886 89.5759 29.7886C88.344 29.7886 87.2525 29.5426 86.3723 28.9432V26.4085H86.3709Z" fill="#575757"/>
<path d="M106.582 27.8518C105.808 28.8723 104.153 29.8234 102.18 29.8234C98.3772 29.8234 95.912 26.3028 95.912 20.1404C95.912 14.2603 98.024 10.2113 101.581 10.2113C105.032 10.2113 106.721 13.6972 106.898 18.7681V19.8596H98.0602V20.388C98.0602 26.5142 100.42 27.817 102.18 27.817C103.448 27.817 105.068 27.2886 106.582 25.1404V27.8518ZM104.822 17.9227C104.611 14.0489 103.484 12.1135 101.618 12.1135C99.8219 12.1135 98.4149 14.3674 98.1326 17.9227H104.822Z" fill="#575757"/>
<path d="M110.068 29.2965V10.7035H112.216V11.9007C113.413 10.4922 114.857 10.0695 115.631 10.0695V12.3929C115.174 12.3929 113.448 12.4638 112.216 14.4702V29.2936H110.068V29.2965Z" fill="#575757"/>
<path d="M125.137 26.4085C126.089 27.2539 126.969 27.7461 127.92 27.7461C129.54 27.7461 130.491 26.4085 130.491 24.1893C130.491 22.1815 129.645 21.1957 128.66 20.4922C128.413 20.2808 128.062 20.1042 127.779 19.9291C125.948 18.7319 125.068 17.2525 125.068 14.9291C125.068 11.9354 126.864 10.2113 128.8 10.2113H129.117C129.891 10.2113 130.596 10.3518 131.335 10.8092V13.2035C130.42 12.3943 129.75 12.183 129.117 12.183C127.955 12.183 127.04 13.0284 127.04 14.8943C127.04 16.9716 127.743 17.4653 129.188 18.4149C131.089 19.5064 132.533 21.0915 132.533 24.1546C132.533 28.134 130.456 29.7886 128.342 29.7886C127.111 29.7886 126.019 29.5426 125.139 28.9432V26.4085H125.137Z" fill="#575757"/>
<path d="M149.431 29.2965L145.206 15.9163H142.811V29.2965H140.523V1.12623H145.382C148.868 1.12623 150.523 4.43543 150.523 8.34395C150.523 8.9418 150.523 13.8723 147.212 15.4922L151.895 29.295H149.431V29.2965ZM145.065 13.9085C146.896 13.9085 148.269 11.7603 148.269 8.23972C148.269 5.28228 147.248 3.16879 145.206 3.16879H142.776V13.9085H145.065Z" fill="#575757"/>
<path d="M154.396 29.2965V1.09149H163.728V3.20354H156.756V13.0284H162.601V15.1404H156.756V27.183H163.728V29.295H154.396V29.2965Z" fill="#575757"/>
<path d="M179.783 28.7681C178.62 29.6135 176.966 30 175.346 30C169.606 30 165.909 24.1199 165.909 15.2808C165.909 6.54893 169.712 0.563118 175.381 0.563118C176.718 0.563118 178.198 0.809209 179.36 1.54893V4.36595C178.023 3.13405 176.649 2.85177 175.417 2.85177C171.086 2.85177 168.409 7.88651 168.409 15.2808C168.409 22.6752 171.12 27.6752 175.417 27.6752C176.86 27.6752 178.409 27.2177 179.783 25.8801V28.7681Z" fill="#575757"/>
<path d="M182.952 29.2965V1.12623H185.381V29.295H182.952V29.2965Z" fill="#575757"/>
<path d="M189.572 29.2965V1.09149H194.289C197.846 1.09149 199.535 4.68298 199.535 9.04893C199.535 13.4149 197.775 17.0411 194.324 17.0411H191.895V29.295H189.572V29.2965ZM194.043 14.9653C196.12 14.9653 197.283 12.3943 197.283 9.04893V8.90852C197.283 5.63405 196.157 3.16879 194.043 3.16879H191.86V14.9653H194.043Z" fill="#575757"/>
<path d="M202.001 29.2965V1.09149H211.332V3.20354H204.36V13.0284H210.206V15.1404H204.36V27.183H211.332V29.295H202.001V29.2965Z" fill="#575757"/>
</g>
</g>
<defs>
<clipPath id="clip0">
<rect width="211.332" height="30" fill="white"/>
</clipPath>
<clipPath id="clip1">
<rect width="211.332" height="30" fill="white"/>
</clipPath>
</defs>
</svg>
