<svg width="24" height="24" viewBox="0 0 24 24" fill="none" xmlns="http://www.w3.org/2000/svg">
<path fill-rule="evenodd" clip-rule="evenodd" d="M12.0005 0C8.74159 0 8.333 0.0134998 7.05321 0.0719991C5.77523 0.130498 4.90314 0.332996 4.13995 0.629992C3.35066 0.936888 2.68197 1.34638 2.01417 2.01417C1.34728 2.68107 0.936888 3.34976 0.630892 4.13905C0.333896 4.90314 0.130498 5.77523 0.0728991 7.05231C0.0143998 8.3321 0 8.74069 0 11.9995C0 15.2584 0.0143998 15.667 0.0728991 16.9477C0.130498 18.2248 0.333896 19.0969 0.630892 19.8601C0.936888 20.6493 1.34728 21.318 2.01417 21.9858C2.68197 22.6527 3.35066 23.0631 4.13995 23.37C4.90314 23.6661 5.77523 23.8695 7.05321 23.9271C8.333 23.9856 8.74159 24 12.0005 24C15.2593 24 15.6679 23.9856 16.9477 23.9271C18.2248 23.8695 19.0978 23.6661 19.861 23.37C20.6502 23.0631 21.3189 22.6527 21.9867 21.9858C22.6536 21.318 23.0631 20.6493 23.37 19.8601C23.667 19.0969 23.8695 18.2248 23.928 16.9477C23.9865 15.667 24 15.2584 24 11.9995C24 8.74069 23.9865 8.3321 23.928 7.05231C23.8695 5.77523 23.667 4.90314 23.37 4.13905C23.0631 3.34976 22.6536 2.68107 21.9867 2.01417C21.3189 1.34638 20.6502 0.936888 19.861 0.629992C19.0978 0.332996 18.2248 0.130498 16.9477 0.0719991C15.6679 0.0134998 15.2593 0 12.0005 0ZM18.4057 4.15435C17.611 4.15435 16.9657 4.79874 16.9657 5.59433C16.9657 6.38902 17.611 7.03431 18.4057 7.03431C19.2013 7.03431 19.8457 6.38902 19.8457 5.59433C19.8457 4.79874 19.2013 4.15435 18.4057 4.15435ZM12.0005 16C9.79098 16 8 14.209 8 11.9995C8 9.79098 9.79098 8 12.0005 8C14.209 8 16 9.79098 16 11.9995C16 14.209 14.209 16 12.0005 16ZM5.83823 11.9995C5.83823 8.59669 8.59759 5.83823 12.0005 5.83823C15.4033 5.83823 18.1618 8.59669 18.1618 11.9995C18.1618 15.4033 15.4033 18.1618 12.0005 18.1618C8.59759 18.1618 5.83823 15.4033 5.83823 11.9995ZM16.8496 2.23197C15.5842 2.17437 15.2044 2.16267 12.0005 2.16267C8.79649 2.16267 8.41669 2.17437 7.15131 2.23197C5.98133 2.28507 5.34593 2.48127 4.92294 2.64507C4.36315 2.86286 3.96355 3.12296 3.54326 3.54326C3.12386 3.96265 2.86286 4.36225 2.64597 4.92294C2.48127 5.34593 2.28597 5.98042 2.23287 7.15131C2.17437 8.41579 2.16267 8.79559 2.16267 11.9995C2.16267 15.2035 2.17437 15.5833 2.23287 16.8487C2.28597 18.0187 2.48127 18.6541 2.64597 19.0771C2.86286 19.6369 3.12386 20.0364 3.54326 20.4567C3.96355 20.877 4.36315 21.1371 4.92294 21.354C5.34593 21.5187 5.98133 21.714 7.15131 21.7671C8.41669 21.8256 8.79559 21.8373 12.0005 21.8373C15.2044 21.8373 15.5842 21.8256 16.8496 21.7671C18.0196 21.714 18.6541 21.5187 19.078 21.354C19.6378 21.1371 20.0373 20.877 20.4567 20.4567C20.877 20.0364 21.1371 19.6369 21.3549 19.0771C21.5187 18.6541 21.7149 18.0187 21.768 16.8487C21.8256 15.5833 21.8382 15.2035 21.8382 11.9995C21.8382 8.79559 21.8256 8.41579 21.768 7.15131C21.7149 5.98042 21.5187 5.34593 21.3549 4.92294C21.1371 4.36225 20.877 3.96265 20.4567 3.54326C20.0373 3.12296 19.6378 2.86286 19.078 2.64507C18.6541 2.48127 18.0196 2.28507 16.8496 2.23197Z" fill="white"/>
</svg>
