<svg width="24" height="23" viewBox="0 0 24 23" fill="none" xmlns="http://www.w3.org/2000/svg">
<path fill-rule="evenodd" clip-rule="evenodd" d="M12 0C18.617 0 24 4.39393 24 9.79446C24 11.9561 23.1666 13.9023 21.4277 15.8205H21.4286C18.9104 18.7353 13.2807 22.2856 12 22.8278C10.7551 23.3557 10.8988 22.5315 10.9558 22.2048C10.9574 22.1954 10.959 22.1864 10.9605 22.1779C10.9911 21.9959 11.1315 21.1441 11.1315 21.1441C11.172 20.8363 11.2143 20.3575 11.0928 20.0533C10.9578 19.7166 10.4268 19.5428 10.0362 19.4577C4.26881 18.691 0 14.6365 0 9.79446C0 4.39393 5.38393 0 12 0ZM7.53229 12.9129H4.1698C4.1068 12.9129 4.0501 12.8876 4.0078 12.8478C4.0069 12.846 4.006 12.845 4.0051 12.8441L4.0015 12.8405C3.9619 12.798 3.9367 12.741 3.9367 12.6785V12.6776V7.41917C3.9367 7.28972 4.0411 7.18472 4.1698 7.18472H5.01133C5.14093 7.18472 5.24533 7.28972 5.24533 7.41917V11.5958H7.53229C7.66189 11.5958 7.76629 11.7009 7.76629 11.8312V12.6776C7.76629 12.8079 7.66189 12.9129 7.53229 12.9129ZM9.56184 12.9129C9.69054 12.9129 9.79494 12.8079 9.79494 12.6785V7.41917C9.79494 7.28972 9.69054 7.18472 9.56184 7.18472H8.72032C8.59071 7.18472 8.48631 7.28972 8.48631 7.41917V12.6785C8.48631 12.8079 8.59071 12.9129 8.72032 12.9129H9.56184ZM15.5893 12.6785C15.5893 12.8079 15.4849 12.9129 15.3553 12.9129H14.5138C14.4931 12.9129 14.4733 12.9102 14.4544 12.9048C14.4526 12.9048 14.4517 12.9048 14.4508 12.9039C14.4454 12.903 14.44 12.9012 14.4346 12.8994L14.4346 12.8994L14.4346 12.8994L14.4274 12.8966L14.4166 12.8912C14.4121 12.8894 14.4085 12.8876 14.4049 12.8858L14.4049 12.8858C14.4031 12.8849 14.4004 12.884 14.3986 12.8822C14.3932 12.8794 14.3887 12.8767 14.3842 12.8731C14.3833 12.8731 14.3824 12.8722 14.3815 12.8713C14.359 12.8568 14.3383 12.8369 14.3221 12.8134L11.9235 9.55458V12.6785C11.9235 12.8079 11.8182 12.9129 11.6886 12.9129H10.8471C10.7184 12.9129 10.614 12.8079 10.614 12.6785V7.41917C10.614 7.28972 10.7184 7.18472 10.8471 7.18472H11.6886H11.6976C11.7012 7.18472 11.7057 7.18562 11.7093 7.18562C11.7115 7.18608 11.7136 7.1863 11.7156 7.18653C11.7176 7.18676 11.7196 7.18698 11.7219 7.18743C11.7231 7.18743 11.7246 7.18763 11.7261 7.18784L11.7286 7.18815L11.7318 7.18834C11.734 7.18879 11.7363 7.18947 11.7385 7.19015L11.741 7.19088L11.7453 7.19196C11.748 7.19196 11.7507 7.19287 11.7534 7.19377C11.7579 7.19468 11.7624 7.19649 11.7669 7.1983L11.775 7.20101L11.7813 7.20373L11.7876 7.20644C11.7903 7.20825 11.793 7.20916 11.7957 7.21007C11.7993 7.21187 11.8038 7.21458 11.8083 7.2173L11.8083 7.21731L11.8113 7.2191L11.8155 7.22183C11.8191 7.22455 11.8227 7.22726 11.8272 7.22998L11.8285 7.23078L11.8298 7.23176L11.8335 7.23451C11.8354 7.23643 11.8376 7.23834 11.8397 7.24026L11.8452 7.24537C11.847 7.24627 11.8488 7.24808 11.8497 7.24899C11.8551 7.25352 11.8596 7.25804 11.8641 7.26347L11.8659 7.26528C11.8722 7.27253 11.8785 7.28067 11.8839 7.28882L14.2798 10.544V7.41917C14.2798 7.28972 14.3851 7.18472 14.5138 7.18472H15.3553C15.4849 7.18472 15.5893 7.28972 15.5893 7.41917V12.6785ZM20.237 8.26645C20.237 8.39681 20.1326 8.50091 20.0039 8.50091H17.7169V9.38983H20.0039C20.1326 9.38983 20.237 9.49574 20.237 9.62519V10.4725C20.237 10.6019 20.1326 10.7069 20.0039 10.7069H17.7169V11.5958H20.0039C20.1326 11.5958 20.237 11.7009 20.237 11.8312V12.6785C20.237 12.8079 20.1326 12.9129 20.0039 12.9129H16.6414H16.6405C16.5784 12.9129 16.5217 12.8876 16.4794 12.8478L16.4758 12.8441C16.4749 12.8432 16.474 12.8414 16.4722 12.8405C16.4326 12.798 16.4074 12.741 16.4074 12.6785V7.41917C16.4074 7.35671 16.4317 7.29968 16.4722 7.25714L16.4758 7.25352L16.4785 7.2508C16.5208 7.21007 16.5775 7.18472 16.6405 7.18472H16.6414H20.0039C20.1326 7.18472 20.237 7.28972 20.237 7.41917V8.26645Z" fill="white"/>
</svg>
