<svg width="138" height="24" viewBox="0 0 138 24" fill="none" xmlns="http://www.w3.org/2000/svg">
<path fill-rule="evenodd" clip-rule="evenodd" d="M96.9562 7.85423V7.81624H95.659H93.3291V2.03382C93.3263 1.74259 93.1167 1.50623 92.7973 1.50623C92.3204 1.50623 92.2655 2.04085 92.2655 2.04226C92.2648 2.04788 92.2637 2.05314 92.2627 2.0584C92.2616 2.06369 92.2606 2.06898 92.2599 2.07462C91.5269 5.74386 88.4907 7.64601 85.1156 7.81765V7.85564C84.761 7.86408 84.474 8.15249 84.474 8.50985C84.474 8.87143 84.7681 9.16547 85.1296 9.16547C85.1718 9.16547 85.214 9.16125 85.2548 9.15281H87.7859V9.60725V18.2935C87.7859 19.6625 88.0968 20.7739 88.63 21.6279C88.6329 21.6322 88.6343 21.635 88.6371 21.6392C88.6737 21.6969 88.7102 21.7531 88.7496 21.808C88.756 21.8165 88.7619 21.8252 88.7679 21.834C88.7739 21.8428 88.7799 21.8516 88.7862 21.8601C88.8041 21.8852 88.8226 21.9097 88.841 21.934L88.872 21.9754L88.9438 22.0683C88.9466 22.0721 88.9495 22.0757 88.9523 22.0794C88.9546 22.0822 88.9569 22.085 88.9591 22.0877C88.9647 22.0944 88.9703 22.101 88.9759 22.1076L88.9761 22.1078C88.9831 22.116 88.9902 22.1243 88.9972 22.133C89.0352 22.178 89.0718 22.2217 89.1112 22.2653C89.1154 22.2695 89.1196 22.2751 89.1253 22.2793C90.0299 23.267 91.3158 23.7594 92.741 23.7594C94.1592 23.7594 95.2017 23.2431 96.0009 22.4172C93.5261 22.3567 93.3263 20.6037 93.3263 18.4849V18.4497V12.6617C93.327 12.6539 93.3281 12.6465 93.3291 12.6391L93.3304 12.6299C93.331 12.6256 93.3315 12.6212 93.3319 12.6166V10.4261V9.15141H94.148H96.8239C96.8647 9.15985 96.9055 9.16407 96.9491 9.16407C97.3107 9.16407 97.6047 8.87002 97.6047 8.50844C97.6005 8.15109 97.3135 7.86126 96.9562 7.85423ZM115.836 14.4555L105.261 16.2352C105.913 21.5745 113.268 21.6772 116.282 18.4258C115.152 20.992 112.688 23.6271 108.479 23.6271C103.311 23.6271 99.8882 20.3082 99.5463 16.2014C99.0666 10.6906 103.207 7.47435 108.341 7.47435C112.927 7.47435 116.007 9.93786 115.836 14.4555ZM110.668 13.9433C110.838 10.6568 110.086 8.5014 107.725 8.70681C105.568 8.91222 104.645 11.6501 105.056 14.9015L110.668 13.9433ZM127.306 7.51234C127.617 7.48701 127.934 7.47435 128.257 7.47435C133.391 7.47435 137.121 10.7257 137.121 15.5515C137.121 20.3772 133.391 23.6286 128.257 23.6286C123.09 23.6286 119.36 20.3772 119.36 15.5515C119.36 11.0268 122.638 7.88658 127.306 7.51234ZM125.006 16.1339C125.725 20.2055 127.368 22.6353 129.421 22.2934C131.509 21.9163 132.228 19.0758 131.507 14.9704C130.788 10.8636 129.146 8.43387 127.059 8.81092C124.972 9.18657 124.287 12.0271 125.006 16.1339ZM84.5725 21.9557C84.3009 21.9318 84.0632 21.8783 83.8521 21.7982C83.2331 21.5618 82.8603 21.0975 82.6211 20.4883C82.4907 19.9593 82.3809 19.3062 82.2751 18.6775L82.2751 18.6774L82.2398 18.468L82.2381 18.4584L82.2365 18.4485C82.2354 18.4412 82.2343 18.434 82.2328 18.4272C82.2328 18.4272 82.2103 18.2499 82.161 17.8672C82.071 17.1793 81.8909 15.8216 81.5828 13.6029C81.2437 11.2322 80.4066 9.61709 78.8126 8.6435C77.5084 7.84578 75.6963 7.47717 73.2327 7.47717C71.2814 7.47717 68.3043 8.02446 67.4841 10.2488C67.0043 11.4461 67.3814 12.4042 68.2706 12.8502C69.2287 13.2948 70.6314 13.1921 71.453 11.7204C70.1178 10.6258 71.1111 8.50281 73.2665 8.67445C74.3175 8.67445 74.9548 9.35962 75.3614 10.291C75.6175 10.8763 75.7821 11.56 75.9017 12.2325C75.965 12.6251 75.9608 12.9332 75.8974 13.1766C75.6841 14.0052 74.779 14.0968 73.3846 14.2381C72.7191 14.3055 71.9422 14.3841 71.0759 14.5596C68.1017 15.1646 66.6329 16.5855 66.2559 18.2907C66.1208 18.9013 66.0336 19.571 66.2502 20.2055C68.0229 25.3745 75.761 23.955 77.0441 21.6223C79.2192 25.141 84.0815 23.6173 85.2337 21.9571C84.9946 21.974 84.7751 21.9726 84.5725 21.9557ZM76.6642 18.6171C76.6572 18.8746 76.6333 19.125 76.5911 19.3628L76.5868 19.3867C76.5742 19.457 76.5587 19.526 76.5432 19.5949L76.5411 19.604L76.5383 19.615L76.5353 19.6254L76.5334 19.6315C76.5165 19.6962 76.4996 19.7595 76.4799 19.8214L76.4779 19.8284L76.4755 19.836L76.4718 19.8469L76.4688 19.8557L76.4658 19.8651C76.4461 19.9241 76.4264 19.9818 76.4025 20.0395L76.3814 20.0902C76.3589 20.1436 76.3364 20.1957 76.3111 20.2477C76.3066 20.2568 76.302 20.2655 76.2975 20.2741L76.2815 20.304C76.2562 20.3518 76.2309 20.3983 76.2027 20.4447C76.1774 20.4869 76.1507 20.5277 76.1226 20.5671C76.1043 20.5938 76.0846 20.6206 76.0649 20.6459C76.0367 20.6825 76.0072 20.7191 75.9762 20.7556C75.9594 20.7753 75.9411 20.795 75.9228 20.8147C75.8918 20.8485 75.8595 20.8808 75.8257 20.9132C75.8172 20.9209 75.8092 20.9287 75.8011 20.9364C75.793 20.9442 75.7849 20.9519 75.7764 20.9596C75.7286 21.0018 75.6794 21.0426 75.6273 21.0806L75.5851 21.1102C75.5288 21.1496 75.4726 21.1876 75.4107 21.2227L75.4037 21.2263C75.4004 21.2281 75.3971 21.2301 75.3938 21.2326C75.3347 21.2663 75.2728 21.2973 75.2081 21.3268C75.201 21.3297 75.1943 21.3328 75.1877 21.336L75.1777 21.3406L75.1673 21.3451C75.0997 21.3747 75.0294 21.4014 74.9562 21.4267C74.9498 21.4287 74.9431 21.4309 74.9364 21.4331L74.9343 21.4338C74.927 21.4362 74.9196 21.4387 74.9126 21.4408C74.8352 21.4661 74.7564 21.4886 74.672 21.5069C73.4058 21.8488 71.8652 20.8907 71.626 19.3164L71.6218 19.2713C71.6035 19.1208 71.5937 18.9745 71.5937 18.8324V18.8296V18.8225V18.8183C71.5937 18.7522 71.5951 18.6861 71.5993 18.6213C71.6035 18.551 71.6092 18.4821 71.6176 18.4145C71.6472 18.1754 71.7034 17.9488 71.7822 17.7364C71.8357 17.5943 71.8976 17.4592 71.9707 17.3298C72.0439 17.2004 72.1255 17.078 72.2169 16.9626C72.262 16.9049 72.3098 16.8486 72.359 16.7952C72.7558 16.3618 73.2834 16.0425 73.8856 15.8596L73.8933 15.8575L73.901 15.8553C73.9784 15.8342 74.053 15.8131 74.1247 15.7934L74.1487 15.7871L74.1726 15.7808C74.2457 15.7611 74.3147 15.7414 74.3822 15.7217L74.3904 15.7195C74.4035 15.716 74.4173 15.7123 74.43 15.7076L74.4856 15.6916L74.4858 15.6915L74.4866 15.6913C74.5344 15.6775 74.5811 15.6641 74.6256 15.6499L74.6397 15.6457L74.6537 15.6415L74.7057 15.6258C74.7523 15.6118 74.7977 15.5982 74.8409 15.5838L74.8421 15.5837C74.8425 15.5836 74.8428 15.5832 74.8437 15.5824C74.9042 15.5641 74.9604 15.5458 75.0167 15.5275C75.0202 15.5261 75.024 15.5248 75.0278 15.5235C75.0317 15.5223 75.0357 15.5212 75.0392 15.5205C75.0821 15.5066 75.124 15.4918 75.1641 15.4775L75.1898 15.4684L75.2017 15.4642L75.2137 15.46C75.2615 15.4431 75.3079 15.4262 75.3502 15.4094L75.3628 15.4051C75.4046 15.3895 75.444 15.3726 75.4809 15.3567L75.4894 15.3531C75.4894 15.3531 75.4908 15.3531 75.4908 15.3517C75.5155 15.3414 75.5394 15.3304 75.5626 15.3197L75.5879 15.3081C75.5936 15.3052 75.5992 15.3024 75.6062 15.2996C75.6358 15.2855 75.6639 15.2715 75.6906 15.2574C75.6906 15.2574 75.692 15.2574 75.692 15.256C75.7202 15.2405 75.7469 15.2265 75.7722 15.211C75.7743 15.2096 75.7768 15.2082 75.7793 15.2068C75.7817 15.2054 75.7842 15.2039 75.7863 15.2025C75.8102 15.1885 75.8341 15.173 75.8566 15.1575H75.858C75.8904 15.135 75.9214 15.1125 75.9495 15.09L75.9498 15.0899L75.9503 15.0898L75.9505 15.0896C75.9507 15.0894 75.9509 15.0891 75.9509 15.0886C75.979 15.0647 76.0058 15.0422 76.0311 15.0168C76.0564 14.9915 76.0789 14.9662 76.1014 14.9409L76.1029 14.9394C76.1254 14.9127 76.1451 14.886 76.1648 14.8578V14.8564L76.1662 14.855V14.8564C76.1929 14.817 76.2182 14.7748 76.2421 14.7312L76.253 14.7115L76.2584 14.7012L76.2632 14.6918C76.2675 14.6848 76.2717 14.6778 76.2745 14.6707C76.2914 14.7847 76.3055 14.9015 76.3195 15.0196C76.3294 15.1023 76.3378 15.1857 76.3464 15.2698L76.3575 15.3784L76.5109 16.9992L76.6642 18.6171ZM31.8779 18.2612C32.2198 20.2914 32.8346 21.8938 35.2587 21.1791C35.2601 21.1862 35.2629 21.196 35.2671 21.203C34.6931 22.4693 33.5971 23.4372 32.1635 23.7622C28.5308 24.5867 26.8974 21.8516 26.5851 19.9678C26.5668 19.8608 25.7775 14.8353 25.6748 14.0756L25.6474 13.8955C25.3526 11.9501 25.0939 10.2432 22.9032 10.2432C20.8843 10.2432 20.268 12.0581 20.268 14.3162C20.268 17.2594 20.2708 18.7437 20.2737 18.8844C20.3201 20.8429 20.752 22.3919 23.2113 22.3919V22.3961C22.384 23.3725 21.2782 23.9986 19.7165 23.9986C15.6688 23.9986 14.7206 20.8443 14.7234 18.8873V14.077C14.7234 12.0581 14.1747 10.2446 11.8139 10.2446C9.75977 10.2446 8.90437 12.0595 8.90437 14.3176C8.90437 14.3176 8.91703 19.3951 8.91703 19.6779C8.91703 23.2529 5.88653 24 4.13633 24C2.67455 24 1.36049 23.4836 0.45162 22.4439V22.3947C2.97281 22.3947 3.37097 20.7219 3.39348 18.6551C3.39489 18.5904 3.39489 18.5257 3.39489 18.4596V18.4595V15.0028C3.39489 12.8502 3.05441 11.0732 0.464282 11.0676H0.461468H0.457247H0.453027C0.202596 11.062 0 10.858 0 10.6061C0 10.3543 0.202596 10.1503 0.453027 10.1461V10.1447C2.01189 10.1447 4.49791 9.63678 6.4901 8.5225C7.08657 8.18074 7.7676 7.5812 8.09106 7.29643C8.19105 7.20841 8.25687 7.15046 8.27548 7.1395C8.34019 7.10011 8.41195 7.06775 8.51184 7.06634C8.52872 7.06493 8.5653 7.06775 8.5653 7.06775C8.82277 7.10292 8.90437 7.26753 8.90437 7.57002V8.27629H8.90577V10.1433C9.93282 8.7068 11.5761 7.47435 14.3477 7.47435C16.8802 7.47435 18.8991 8.43246 19.7545 10.6906C20.6788 9.04869 22.2518 7.47435 25.264 7.47435C28.6181 7.47435 30.6032 9.32163 31.1843 13.6338C31.1857 13.6458 31.1874 13.6574 31.1892 13.669C31.191 13.6806 31.1927 13.6922 31.1941 13.7042L31.8483 18.0811C31.8582 18.1416 31.868 18.2021 31.8779 18.2612ZM43.1825 18.4595V18.4244V8.43808H43.1811V7.57002C43.1811 7.26753 43.0995 7.10292 42.842 7.06775C42.842 7.06775 42.8054 7.06493 42.7885 7.06634C42.6886 7.06775 42.6183 7.10011 42.5522 7.1395C42.534 7.15042 42.47 7.20679 42.3727 7.29253C42.0564 7.57131 41.3878 8.16055 40.7949 8.50702C40.7725 8.51965 40.7497 8.53229 40.7269 8.54492L40.7267 8.54501C40.7038 8.55767 40.681 8.57033 40.6585 8.583C40.6402 8.59285 40.6219 8.60269 40.605 8.61254V8.61395C38.6423 9.66492 36.2478 10.1461 34.7311 10.1461V10.1489C34.4849 10.1587 34.2879 10.3599 34.2879 10.609C34.2879 10.858 34.4849 11.0592 34.7311 11.069V11.0704H34.748H34.7494H34.7508C37.3325 11.0803 37.673 12.8558 37.673 15.0056V17.0414V18.2612V18.461C37.673 18.5791 37.6716 18.6959 37.6688 18.8113C37.8826 22.1021 40.0155 23.7341 42.6113 23.7341C44.0294 23.7341 45.072 23.2177 45.8711 22.3919C43.3808 22.3243 43.1825 20.5741 43.1825 18.4595ZM55.6871 9.14714C56.7817 7.05928 58.4249 5.65658 60.9574 6.0674C63.4223 6.47822 64.3804 8.73773 63.6277 10.6863C62.8061 12.6715 60.7196 12.9796 59.5899 12.5688C60.4903 11.5516 60.0246 9.79432 58.598 9.45526C57.1235 9.10353 55.825 9.8309 55.6885 11.3715V18.4229V18.4581C55.6885 20.5769 55.8883 22.3299 58.363 22.3904C57.5639 23.2163 56.5214 23.7326 55.1032 23.7326C52.4104 23.7326 50.2156 21.9768 50.1438 18.4356C50.1438 18.4062 50.1431 18.3769 50.1424 18.3473C50.1417 18.3174 50.141 18.2873 50.141 18.2569H50.1438V13.5944C50.1438 11.439 49.8357 9.65926 47.2006 9.65926V9.59032C47.1809 9.59313 47.1612 9.59595 47.1401 9.59595C46.8854 9.59595 46.6786 9.38913 46.6786 9.13448C46.6786 8.87983 46.8854 8.67301 47.1401 8.67301C47.2217 8.67301 47.2976 8.69693 47.3638 8.73351C48.9142 8.69974 51.2075 8.19185 53.1124 7.17605C53.7468 6.85884 54.5304 6.16741 54.8813 5.85779C54.9786 5.77192 55.0427 5.71542 55.061 5.70442C55.1257 5.66503 55.1975 5.63267 55.2974 5.63126C55.3143 5.62985 55.3508 5.63267 55.3508 5.63267C55.6083 5.66784 55.6899 5.83245 55.6899 6.13493V8.711H55.6871V9.14714Z" fill="#575757"/>
<path d="M41.4745 4.88565C41.6166 4.835 41.7559 4.77028 41.8881 4.6929C42.0907 4.57472 42.2792 4.42699 42.4495 4.24972C43.4062 3.24237 43.3654 1.64974 42.358 0.69163C41.3507 -0.265072 39.758 -0.224272 38.7999 0.78308C38.6311 0.961758 38.4932 1.15732 38.3863 1.36554C38.316 1.50201 38.2583 1.64411 38.2147 1.78902L38.1485 2.06197L37.3593 5.95209L41.2044 4.96443L41.4745 4.88565Z" fill="#FF8C00"/>
</svg>
