<?xml version="1.0" encoding="UTF-8"?>
<svg width="97px" height="17px" viewBox="0 0 97 17" version="1.1" xmlns="http://www.w3.org/2000/svg" xmlns:xlink="http://www.w3.org/1999/xlink">
    <title>Artboard</title>
    <g id="Artboard" stroke="none" stroke-width="1" fill="none" fill-rule="evenodd">
        <g id="logo">
            <path d="M68.5872434,5.51538359 L68.5872434,5.488361 L67.6695984,5.488361 L66.0214169,5.488361 L66.0214169,1.37527902 C66.0194361,1.16812477 65.8711642,1 65.6452192,1 C65.307858,1 65.2690215,1.38027952 65.2690215,1.38128246 C65.2685263,1.38528001 65.2677482,1.38902149 65.2670408,1.39276297 C65.2662626,1.39652579 65.2655552,1.40028861 65.2650601,1.40430039 C64.7465326,4.01426039 62.5987114,5.36727503 60.2111507,5.48936394 L60.2111507,5.51638654 C59.9603051,5.52238998 59.7572801,5.72753834 59.7572801,5.98173139 C59.7572801,6.23892616 59.9653277,6.44807918 60.2210544,6.44807918 C60.2509069,6.44807918 60.2807593,6.44507746 60.3096214,6.43907402 L62.1001327,6.43907402 L62.1001327,6.76232086 L62.1001327,12.9409205 C62.1001327,13.9147013 62.3200648,14.7052491 62.6972528,15.3127061 C62.6993043,15.3157648 62.7002946,15.3177564 62.7022754,15.3207439 C62.7281664,15.3617864 62.7539866,15.4017619 62.7818584,15.4408127 C62.7863857,15.4468588 62.7905594,15.4530472 62.7948039,15.4593067 C62.7990483,15.4655662 62.8032927,15.4718258 62.8077494,15.4778719 C62.8204119,15.4957257 62.8334989,15.5131528 62.8465151,15.5304375 L62.8684447,15.5598857 L62.9192363,15.6259662 C62.921217,15.6286692 62.9232685,15.6312299 62.9252492,15.6338617 C62.9268763,15.6358534 62.9285033,15.6378451 62.9300596,15.6397656 C62.934021,15.6445314 62.9379825,15.649226 62.941944,15.6539206 L62.9420855,15.6540629 C62.9470373,15.6598956 62.9520599,15.6657995 62.9570117,15.6719878 C62.9838931,15.7039967 63.0097841,15.7350809 63.0376558,15.7660939 C63.0406269,15.7690814 63.043598,15.7730647 63.0476302,15.7760522 C63.6875482,16.4786112 64.5971996,16.8288593 65.6053923,16.8288593 C66.6086333,16.8288593 67.3461023,16.4616109 67.91146,15.8741416 C66.1607755,15.8311075 66.0194361,14.5841844 66.0194361,13.0770649 L66.0194361,13.0520269 L66.0194361,8.93497577 C66.0199313,8.92942757 66.0207094,8.92416389 66.0214169,8.91890021 L66.0223365,8.91235618 C66.0227609,8.90929755 66.0231146,8.9061678 66.0233976,8.90289578 L66.0233976,7.34477546 L66.0233976,6.43807819 L66.6007103,6.43807819 L68.4936538,6.43807819 C68.5225159,6.44408163 68.551378,6.44708335 68.5822208,6.44708335 C68.8380182,6.44708335 69.0459951,6.23792321 69.0459951,5.98072844 C69.043024,5.7265425 68.839999,5.52038409 68.5872434,5.51538359 Z M81.9428971,10.2109202 L74.4620955,11.4768351 C74.9233232,15.2747223 80.1262826,15.3477736 82.2583995,13.0350266 C81.4590325,14.8603853 79.7159881,16.7347532 76.7385229,16.7347532 C73.0826569,16.7347532 70.6613531,14.3739929 70.4194915,11.4527929 C70.0801496,7.53291645 73.0090869,5.24517189 76.6409011,5.24517189 C79.8850577,5.24517189 82.0638633,6.99748642 81.9428971,10.2109202 Z M78.2870312,9.84658819 C78.4072899,7.50887423 77.8753218,5.97572083 76.20514,6.12183062 C74.6792687,6.26794041 74.0263344,8.21541654 74.3170776,10.5281636 L78.2870312,9.84658819 Z M90.0568257,5.27219448 C90.2768285,5.25417705 90.5010757,5.24517189 90.7295673,5.24517189 C94.3613816,5.24517189 97,7.55788336 97,10.9905138 C97,14.4230731 94.3613816,16.7358202 90.7295673,16.7358202 C87.0744087,16.7358202 84.4357903,14.4230731 84.4357903,10.9905138 C84.4357903,7.77205822 86.7546619,5.53839441 90.0568257,5.27219448 Z M88.4297956,11.4047796 C88.9384194,14.3009415 90.1006848,16.0292779 91.552986,15.7860817 C93.0300465,15.5178474 93.5386702,13.4973768 93.0286316,10.5771727 C92.5200079,7.65597274 91.3584498,5.9276862 89.8820968,6.19588491 C88.4057438,6.46308778 87.9211718,8.48357968 88.4297956,11.4047796 Z M59.8269594,15.5458729 C59.6348284,15.5288727 59.4666783,15.4908177 59.3173453,15.4338419 C58.8794619,15.2656887 58.6157416,14.9354283 58.4465304,14.5020995 C58.3542849,14.1258175 58.2766119,13.6612622 58.2017685,13.2140628 L58.2017685,13.2139917 L58.1767971,13.0650438 L58.1755945,13.0582152 L58.1744627,13.0511733 C58.1736846,13.0459807 58.1729064,13.0408593 58.1718453,13.0360224 C58.1718453,13.0360224 58.1559287,12.9099075 58.1210537,12.6376899 C58.0573873,12.1483811 57.9299837,11.1826381 57.7120324,9.60445892 C57.4721516,7.9181609 56.8799834,6.76932013 55.7523807,6.07679771 C54.8297839,5.50937304 53.5478964,5.24717777 51.8051349,5.24717777 C50.4247767,5.24717777 48.318763,5.63646956 47.7385499,7.21866054 C47.3991373,8.07030969 47.6658995,8.75181395 48.2949235,9.06905734 C48.9726876,9.38530491 49.9649638,9.31225357 50.5461673,8.26542149 C49.6016409,7.48682368 50.3043057,5.97672378 51.8290451,6.09881269 C52.5725272,6.09881269 53.023356,6.58617964 53.3109866,7.24867774 C53.4921529,7.66500636 53.6085917,8.15132768 53.6931972,8.62968235 C53.7379759,8.9089419 53.7350048,9.12809591 53.6901554,9.3012283 C53.539266,9.89061816 52.8989943,9.95577398 51.9125896,10.0562818 C51.441812,10.104224 50.8922295,10.1601328 50.2794051,10.2849673 C48.1754429,10.7153087 47.1364073,11.7260064 46.8697158,12.9389289 C46.7741455,13.3732536 46.7124598,13.8496166 46.8656836,14.3009415 C48.1196994,17.9776929 53.5936654,16.9679911 54.501336,15.3087228 C56.0400114,17.8116025 59.4796238,16.7277824 60.2946952,15.5468688 C60.1255548,15.5588899 59.9702795,15.557894 59.8269594,15.5458729 Z M54.2325931,13.1710998 C54.2276413,13.3542616 54.2107343,13.5323732 54.1808818,13.7015222 L54.17784,13.7185225 C54.1689267,13.7685275 54.1579619,13.8176077 54.1469972,13.8666168 L54.1455116,13.8730897 L54.1435309,13.8809141 L54.1414087,13.8883117 L54.1400646,13.8926507 C54.1281095,13.9386724 54.1161543,13.9836982 54.1022185,14.0277281 L54.1008037,14.0327073 L54.0991059,14.0381132 L54.0964885,14.0458665 L54.0943663,14.052126 L54.0922441,14.0588123 C54.0783082,14.1007795 54.0643723,14.1418219 54.0474654,14.1828644 L54.0325391,14.2189277 C54.0166225,14.2569116 54.0007059,14.2939707 53.9828086,14.3309587 C53.9796253,14.3374317 53.9763712,14.34362 53.9731879,14.3497373 L53.9618694,14.3710054 C53.9439721,14.4050059 53.9260748,14.4380817 53.906126,14.4710864 C53.8882286,14.5011036 53.8693409,14.530125 53.8494629,14.5581505 C53.8365174,14.5771425 53.8225815,14.5962055 53.8086456,14.6142016 C53.7886968,14.6402355 53.7678284,14.6662694 53.7458989,14.6922321 C53.7340145,14.7062449 53.721069,14.7202577 53.7081235,14.7342704 C53.6861939,14.7583126 53.6633448,14.7812879 53.6394345,14.8043343 C53.6334216,14.8098113 53.6277623,14.8153595 53.6220324,14.8208366 C53.6163024,14.8263848 53.6105724,14.8318619 53.6045595,14.837339 C53.5707455,14.8673562 53.5359412,14.8963775 53.4990855,14.9234072 L53.469233,14.944462 C53.4294061,14.9724875 53.38965,14.9995172 53.3458617,15.0244841 L53.3409099,15.0270448 C53.3385754,15.0283252 53.336241,15.0297478 53.3339065,15.0315261 C53.2920989,15.0554971 53.2483106,15.0775477 53.2025416,15.0985313 C53.197519,15.1005941 53.1927794,15.1027991 53.1881105,15.1050753 L53.1810365,15.1083473 L53.1736795,15.1115482 C53.1258589,15.1326029 53.0761284,15.1515949 53.0243464,15.169591 C53.019819,15.1710136 53.0150794,15.1725785 53.0103398,15.1741433 L53.0088542,15.1746412 C53.0036902,15.1763484 52.9984554,15.1781267 52.9935035,15.1796204 C52.9387504,15.1976165 52.883007,15.2136209 52.823302,15.2266379 C51.9275866,15.4698341 50.8377594,14.7883298 50.6685482,13.6685175 L50.6655771,13.6364376 C50.6526316,13.5293857 50.6456991,13.4253213 50.6456991,13.3242444 L50.6456991,13.3222528 L50.6456991,13.3172025 L50.6456991,13.314215 C50.6456991,13.2671975 50.6466894,13.2201801 50.6496605,13.1740873 C50.6526316,13.1240824 50.6566638,13.0750732 50.662606,13.0269888 C50.6835452,12.856915 50.7233013,12.6957326 50.7790448,12.5446508 C50.8168909,12.4435739 50.8606793,12.3474762 50.9123905,12.2554329 C50.9641725,12.1633897 51.0218967,12.0763256 51.0865535,11.9942406 C51.1184574,11.9531982 51.1522714,11.9131515 51.1870756,11.8751677 C51.4677737,11.5668867 51.8410003,11.3397661 52.2669992,11.2096678 L52.2724462,11.2081741 L52.2778932,11.2066092 C52.3326463,11.1916006 52.3854187,11.176592 52.4361396,11.1625792 L52.4531173,11.158098 L52.4700243,11.1536168 C52.5217355,11.139604 52.5705465,11.1255912 52.6182962,11.1115785 L52.624097,11.1100136 C52.633364,11.107524 52.6431261,11.1048922 52.6521102,11.101549 L52.6914419,11.0901681 L52.6915833,11.0900969 L52.6921493,11.0899547 C52.7259632,11.0801386 52.758999,11.0706071 52.7904785,11.0605065 L52.8004529,11.057519 L52.8103565,11.0545315 L52.8471416,11.043364 C52.8801066,11.0334057 52.9122228,11.0237319 52.9427827,11.0134891 L52.9436315,11.0134179 C52.9439145,11.0133468 52.9441267,11.0130623 52.9447634,11.0124932 C52.9875614,10.9994763 53.0273175,10.9864594 53.0671443,10.9734424 C53.0696203,10.9724466 53.0723084,10.9715219 53.0749965,10.9705972 C53.0777554,10.9697436 53.080585,10.9689612 53.0830609,10.9684633 C53.1134086,10.9585761 53.1430488,10.9480487 53.1714158,10.937877 L53.1895961,10.9314041 L53.1980142,10.9284166 L53.206503,10.9254291 C53.2403169,10.913408 53.2731405,10.9013869 53.3030637,10.8894369 L53.311977,10.8863783 C53.3415465,10.8752819 53.3694183,10.8632608 53.3955215,10.851951 L53.4015344,10.8493903 C53.4015344,10.8493903 53.4025248,10.8493903 53.4025248,10.8483945 C53.4199977,10.841068 53.4369046,10.8332436 53.4533164,10.8256326 L53.4712137,10.8173814 C53.475246,10.8153186 53.4792074,10.813327 53.4841592,10.8113353 C53.5050984,10.8013059 53.5249765,10.7913476 53.5438642,10.7813181 C53.5438642,10.7813181 53.5448545,10.7813181 53.5448545,10.7803223 C53.5648033,10.769297 53.583691,10.7593387 53.6015884,10.7483134 C53.6030739,10.7473176 53.6048424,10.7463218 53.6066109,10.7453259 C53.6083087,10.7443301 53.6100772,10.7432631 53.6115628,10.7422673 C53.6284697,10.732309 53.6453767,10.7212837 53.6612933,10.7102584 L53.6622837,10.7102584 C53.6852036,10.694254 53.7071331,10.6782496 53.7270112,10.6622451 L53.7272234,10.662174 L53.7275771,10.6621029 L53.7277186,10.6619606 C53.7278601,10.6618184 53.7280015,10.661605 53.7280015,10.6612493 C53.7478796,10.6442491 53.766838,10.6282446 53.7847354,10.6101774 C53.8026327,10.5921813 53.8185493,10.5741852 53.8344659,10.5561891 L53.835527,10.5551222 C53.8514436,10.5361302 53.8653795,10.5171383 53.8793153,10.4970794 L53.8793153,10.4960836 L53.8803057,10.4950878 L53.8803057,10.4960836 C53.8991934,10.468058 53.9170907,10.4380408 53.9339977,10.4070278 L53.9417084,10.393015 L53.9455284,10.3856886 L53.9489239,10.3790023 C53.9519658,10.3740231 53.9549369,10.369044 53.9569176,10.3639937 C53.9688727,10.4450828 53.9788471,10.5281636 53.9887508,10.6121691 C53.9957541,10.6709942 54.0016963,10.7303173 54.00778,10.7901383 L54.0156322,10.8673864 L54.124148,12.0202745 L54.2325931,13.1710998 Z M22.550567,12.9179453 C22.7924286,14.3620429 23.2273408,15.501843 24.9421598,14.9934711 C24.9431502,14.9985214 24.9451309,15.0054922 24.948102,15.0104713 C24.5420519,15.9112007 23.7667367,16.5996758 22.7526017,16.8308509 C20.1828137,17.4173244 19.0273394,15.4718258 18.806417,14.1318636 C18.7934715,14.0557537 18.2351172,10.481075 18.1624667,9.94069425 L18.1430838,9.81258766 C17.934541,8.42880895 17.7515355,7.21467722 16.2018247,7.21467722 C14.7736459,7.21467722 14.3376726,8.50563023 14.3376726,10.111835 C14.3376726,12.2053569 14.3396533,13.2611514 14.3417048,13.3612325 C14.3745283,14.7543293 14.6800563,15.8561455 16.419776,15.8561455 L16.419776,15.859133 C15.8345403,16.5536542 15.0522925,16.9990042 13.947539,16.9990042 C11.0841782,16.9990042 10.4134173,14.7553251 10.4153981,13.3632953 L10.4153981,9.94169008 C10.4153981,8.50563023 10.0272453,7.21567305 8.35720495,7.21567305 C6.90410433,7.21567305 6.2989906,8.50662606 6.2989906,10.1128308 C6.2989906,10.1128308 6.30794634,13.7244975 6.30794634,13.9256554 C6.30794634,16.4685817 4.16415728,17 2.92605808,17 C1.89198846,17 0.962416625,16.6326805 0.319477979,15.8931335 L0.319477979,15.8581372 C2.1029789,15.8581372 2.38463904,14.668261 2.40056271,13.1981295 C2.40156015,13.1521079 2.40156015,13.1060863 2.40156015,13.0590688 L2.40156015,13.0589977 L2.40156015,10.6002191 C2.40156015,9.06905734 2.1607031,7.80506291 0.328435134,7.80107959 L0.326444498,7.80107959 L0.323458544,7.80107959 L0.320473297,7.80107959 C0.143317304,7.79709626 0,7.65198942 0,7.47281092 C0,7.29370355 0.143317304,7.1485967 0.320473297,7.14560921 L0.320473297,7.14461338 C1.42321986,7.14461338 3.18184137,6.78332578 4.59112536,5.99072943 C5.01307086,5.74763279 5.49483449,5.32117515 5.72365152,5.11861595 C5.79438489,5.05600662 5.84094624,5.01478632 5.85411104,5.00699038 C5.89988718,4.97897196 5.95065052,4.95595403 6.02131315,4.95495108 C6.03325413,4.95394814 6.05913099,4.95595403 6.05913099,4.95595403 C6.2412664,4.98097073 6.2989906,5.09805915 6.2989906,5.31322273 L6.2989906,5.81559827 L6.29998097,5.81559827 L6.29998097,7.14361754 C7.02652066,6.12182351 8.18898418,5.24517189 10.1496262,5.24517189 C11.9411279,5.24517189 13.3693067,5.92668325 13.9744204,7.53291645 C14.6282743,6.36501262 15.7410214,5.24517189 17.871865,5.24517189 C20.2445701,5.24517189 21.6488386,6.55915705 22.0599113,9.62643834 C22.0609017,9.63497404 22.0621043,9.64322521 22.0633776,9.65147639 C22.0646509,9.65972756 22.0658535,9.66797873 22.0668439,9.67651443 L22.5296278,12.7898387 C22.5366312,12.8328728 22.5435637,12.875907 22.550567,12.9179453 Z M30.5474909,13.0589977 L30.5474909,13.0340308 L30.5474909,5.93068081 L30.5465005,5.93068081 L30.5465005,5.31322273 C30.5465005,5.09805915 30.4887763,4.98097073 30.3066197,4.95595403 C30.3066197,4.95595403 30.2807287,4.95394814 30.2687736,4.95495108 C30.1981039,4.95595403 30.1483733,4.97897196 30.1016139,5.00699038 C30.0887391,5.01475786 30.0434653,5.0548543 29.9746348,5.11584185 C29.7508828,5.31414032 29.2779122,5.73327148 28.8584921,5.97971838 C28.8426463,5.98870221 28.8265175,5.99769314 28.8103886,6.00667696 L28.8102472,6.00674098 C28.7940476,6.01574614 28.7779188,6.0247513 28.7620022,6.03376357 C28.7490567,6.04076996 28.7361112,6.04776923 28.724156,6.05477561 L28.724156,6.05577856 C27.3357334,6.80334199 25.6418535,7.14560921 24.5689333,7.14560921 L24.5689333,7.14760087 C24.3947703,7.15457169 24.2554116,7.29768687 24.2554116,7.47487371 C24.2554116,7.65198942 24.3947703,7.7951046 24.5689333,7.80207542 L24.5689333,7.80307125 L24.5808884,7.80307125 L24.5818788,7.80307125 L24.5828691,7.80307125 C26.4091751,7.8101132 26.6500463,9.07304067 26.6500463,10.6022107 L26.6500463,12.0502917 L26.6500463,12.9179453 L26.6500463,13.0600646 C26.6500463,13.1440701 26.6490559,13.2271509 26.6470752,13.3092358 C26.7983183,15.6500084 28.3071411,16.8108632 30.1434215,16.8108632 C31.1465917,16.8108632 31.8841315,16.4435437 32.4494184,15.8561455 C30.6877692,15.8080611 30.5474909,14.5631297 30.5474909,13.0589977 Z M39.3933001,6.4350409 C40.1676249,4.94992925 41.3300319,3.95217743 43.1215335,4.244397 C44.8652147,4.53661658 45.5429788,6.14382427 45.0105155,7.52985782 C44.4293121,8.94194659 42.9533128,9.16110061 42.154158,8.86889525 C42.7911049,8.14535269 42.4616667,6.89538526 41.4524836,6.65420914 C40.4094158,6.40402076 39.4908511,6.9214049 39.3942904,8.01724611 L39.3942904,13.0329638 L39.3942904,13.0580018 C39.3942904,14.5651214 39.5356298,15.8120444 41.2862435,15.8550785 C40.7209567,16.4425479 39.9834876,16.8097962 38.9802466,16.8097962 C37.0753481,16.8097962 35.5227369,15.5608815 35.4719452,13.0419974 C35.4719452,13.0210849 35.47145,13.0002436 35.4709549,12.9791889 C35.4704597,12.9579208 35.4699645,12.9365104 35.4699645,12.9148867 L35.4719452,12.9148867 L35.4719452,9.5984128 C35.4719452,8.0652594 35.2539939,6.79931599 33.3899126,6.79931599 L33.3899126,6.75027841 C33.3759767,6.75227719 33.3620408,6.75428307 33.3471146,6.75428307 C33.1669387,6.75428307 33.0206475,6.60717034 33.0206475,6.42603574 C33.0206475,6.24490114 33.1669387,6.09778841 33.3471146,6.09778841 C33.4048388,6.09778841 33.4585308,6.1148029 33.505361,6.14082255 C34.6021208,6.11680167 36.2244113,5.75553542 37.5719459,5.03298869 C38.0207233,4.80735466 38.5750454,4.31553492 38.8232736,4.09529972 C38.8921041,4.0342197 38.9374487,3.99403079 38.9503942,3.9862064 C38.9961632,3.95818798 39.0469549,3.93517005 39.1176246,3.9341671 C39.1295797,3.93316416 39.1554,3.93517005 39.1554,3.93517005 C39.3375566,3.96018675 39.3952808,4.07727517 39.3952808,4.29243164 L39.3952808,6.124811 L39.3933001,6.124811 L39.3933001,6.4350409 Z" id="Shape" fill="#575757"></path>
            <path d="M29.8469914,3.28331728 C29.9452995,3.24927882 30.0416705,3.20578485 30.1331296,3.15378295 C30.273293,3.07436211 30.4037017,2.97508269 30.5215192,2.85595143 C31.1833866,2.17897913 31.1551602,1.10867945 30.4582174,0.464798052 C29.7613437,-0.178137124 28.6594767,-0.150718183 27.9966407,0.526255456 C27.8798609,0.646332943 27.7844585,0.777757032 27.7105026,0.917687713 C27.6618674,1.00940004 27.6219492,1.1048959 27.5917857,1.20228019 L27.545987,1.38571155 L27,4 L29.6601299,3.33626003 L29.8469914,3.28331728 Z" id="Path" fill="#FF8C00" fill-rule="nonzero"></path>
        </g>
    </g>
</svg>