<svg width="130" height="30" viewBox="0 0 130 30" fill="none" xmlns="http://www.w3.org/2000/svg">
<path d="M11.2314 29.2815L3.48021 8.79122C2.83403 7.14037 2.04475 4.16176 1.97246 3.80327C1.97246 3.98325 2.22326 7.03267 2.22326 9.50968L2.25867 29.283H0V0.538452H2.54782L9.68822 19.0917C10.5129 21.3518 11.4822 24.6904 11.5899 25.0489C11.5545 24.9058 11.3745 21.2456 11.3745 18.6978L11.3391 0.538452H13.5992V29.283H11.2314V29.2815Z" fill="#575757"/>
<path d="M27.4876 27.8106C26.6983 28.8507 25.012 29.82 23.0012 29.82C19.1256 29.82 16.6132 26.2321 16.6132 19.9518C16.6132 13.9591 18.7657 9.83276 22.3904 9.83276C25.9075 9.83276 27.6292 13.3853 27.8092 18.5532V19.6656H18.8025V20.204C18.8025 26.4475 21.2073 27.7752 23.0012 27.7752C24.2936 27.7752 25.9444 27.2367 27.4876 25.0474V27.8106ZM25.6936 17.6916C25.4782 13.7438 24.3305 11.7713 22.4288 11.7713C20.598 11.7713 19.1625 14.0683 18.8763 17.6916H25.6936Z" fill="#575757"/>
<path d="M40.1544 29.2815L38.5036 17.7978C38.3959 16.8286 38.1451 14.2454 38.0005 13.0976C37.8928 14.4607 37.642 16.9378 37.4974 17.8347L35.882 29.2815H33.6218L30.4293 10.3344H32.5818L34.1972 21.9611C34.3049 22.8227 34.5557 25.549 34.7357 27.0214C34.9157 25.6936 35.1311 23.1812 35.2742 22.1411L36.9604 10.3344H39.0775L40.7637 22.2119C40.9068 23.252 41.1222 25.5844 41.2668 27.0199C41.4822 25.4413 41.6976 22.8935 41.8407 21.9596L43.4561 10.3329H45.6086L42.4146 29.2815H40.1544Z" fill="#575757"/>
<path d="M63.9095 29.2815L59.6032 15.6454H57.163V29.2815H54.8306V0.573853H59.7831C63.3356 0.573853 65.0219 3.94636 65.0219 7.92964C65.0219 8.53894 65.0219 13.5638 61.6494 15.2146L66.4219 29.2815H63.9095ZM59.4601 13.6007C61.3263 13.6007 62.7249 11.4113 62.7249 7.82342C62.7249 4.80941 61.6848 2.65548 59.6032 2.65548H57.1276V13.6007H59.4601Z" fill="#575757"/>
<path d="M68.9683 29.2815V0.538452H78.478V2.6909H71.373V12.7022H77.3302V14.8547H71.373V27.1276H78.478V29.28H68.9683V29.2815Z" fill="#575757"/>
<path d="M94.8419 28.7445C93.6572 29.6061 91.971 30 90.3201 30C84.4706 30 80.7027 24.0074 80.7027 14.9993C80.7027 6.10032 84.5783 0 90.3555 0C91.7187 0 93.2265 0.250799 94.4111 1.00467V3.87558C93.0479 2.62011 91.6479 2.33243 90.3924 2.33243C85.9784 2.33243 83.2505 7.46349 83.2505 14.9993C83.2505 22.535 86.0138 27.6307 90.3924 27.6307C91.8633 27.6307 93.4418 27.1645 94.8419 25.8013V28.7445Z" fill="#575757"/>
<path d="M99.5067 29.2815V0.573853H101.982V29.2815H99.5067Z" fill="#575757"/>
<path d="M106.252 29.2815V0.538452H111.06C114.685 0.538452 116.406 4.19864 116.406 8.64811C116.406 13.0976 114.612 16.7932 111.095 16.7932H108.62V29.2815H106.252ZM110.809 14.6776C112.926 14.6776 114.111 12.0575 114.111 8.64811V8.50501C114.111 5.16791 112.963 2.65549 110.809 2.65549H108.584V14.6776H110.809Z" fill="#575757"/>
<path d="M119.637 29.2815V0.538452H129.147V2.6909H122.042V12.7022H127.999V14.8547H122.042V27.1276H129.147V29.28H119.637V29.2815Z" fill="#575757"/>
</svg>
