<svg width="208" height="30" viewBox="0 0 208 30" fill="none" xmlns="http://www.w3.org/2000/svg">
<g clip-path="url(#clip0)">
<path d="M0 29.3659V10.7303H2.15333V11.9303C3.35333 10.5185 4.8 10.0948 5.5763 10.0948V12.4237C5.11778 12.4237 3.38815 12.4948 2.15333 14.5059V29.3644H0V29.3659Z" fill="#696969"/>
<path d="M17.9289 27.9178C17.1526 28.9407 15.4941 29.8941 13.5163 29.8941C9.70447 29.8941 7.23337 26.3652 7.23337 20.1881C7.23337 14.2941 9.35042 10.2355 12.9156 10.2355C16.3748 10.2355 18.0682 13.7296 18.2452 18.8126V19.9066H9.38814V20.4363C9.38814 26.577 11.7533 27.8829 13.5178 27.8829C14.7889 27.8829 16.4126 27.3533 17.9303 25.2V27.9178H17.9289ZM16.1644 17.9652C15.9526 14.0822 14.8237 12.1422 12.9533 12.1422C11.1526 12.1422 9.7422 14.4014 9.45925 17.9652H16.1644Z" fill="#696969"/>
<path d="M30.3178 29.0481C29.3296 29.6474 28.2355 29.8592 27.1763 29.8592C23.0118 29.8592 20.6118 25.8355 20.6118 20.0126C20.6118 14.2244 23.1526 10.2355 27.1415 10.2355C28.0237 10.2355 29.0467 10.4126 30 10.9422V13.4133C28.9059 12.46 28.0237 12.2844 27.2111 12.2844C24.3874 12.3192 22.8348 15.4607 22.8348 20.014C22.8348 24.6022 24.3874 27.7436 27.2111 27.7785C28.1993 27.7785 29.1526 27.4955 30.3178 26.4725V29.0481Z" fill="#696969"/>
<path d="M32.5407 20.0474C32.5407 13.8355 34.7289 10.2355 38.4696 10.2355C42.2467 10.2355 44.4348 13.8355 44.4348 20.0474C44.4348 26.2941 42.2467 29.8592 38.4696 29.8592C34.7289 29.8592 32.5407 26.2941 32.5407 20.0474ZM42.2467 20.0474C42.2467 15.2474 40.8348 12.177 38.4696 12.177C36.1407 12.177 34.7289 15.2474 34.7289 20.0474C34.7289 25.0244 36.1059 27.8829 38.4696 27.8829C40.9059 27.8829 42.2467 25.0244 42.2467 20.0474Z" fill="#696969"/>
<path d="M59.8941 29.3659V17.1192C59.8941 14.1896 59.823 12.2133 58.1644 12.2133C56.2941 12.2133 55.7644 15.0718 55.6585 15.6725C55.6933 15.9555 55.6933 16.2022 55.6933 16.4851V29.3673H53.5763V17.1207C53.5763 14.191 53.3993 12.2147 51.7756 12.2147C50.2578 12.2147 49.3756 14.2621 49.1637 15.4621L49.1985 29.3688H47.0815V10.7303H49.1637V12.0711C49.8704 10.9422 50.8585 10.1659 52.1282 10.1659C53.6459 10.1659 54.5993 11.1889 55.1274 12.637C55.9037 10.9785 57.1748 10.1659 58.5156 10.1659C61.586 10.1659 62.0097 13.0955 62.0097 16.4837V29.3659H59.8941Z" fill="#696969"/>
<path d="M77.5052 29.3659V17.1192C77.5052 14.1896 77.4341 12.2133 75.7756 12.2133C73.9052 12.2133 73.3756 15.0718 73.2697 15.6725C73.3045 15.9555 73.3045 16.2022 73.3045 16.4851V29.3673H71.1874V17.1207C71.1874 14.191 71.0104 12.2147 69.3867 12.2147C67.8689 12.2147 66.9867 14.2621 66.7749 15.4621L66.8097 29.3688H64.6926V10.7303H66.7749V12.0711C67.4801 10.9422 68.4682 10.1659 69.7393 10.1659C71.2571 10.1659 72.2104 11.1889 72.7386 12.637C73.5149 10.9785 74.786 10.1659 76.1267 10.1659C79.1971 10.1659 79.6208 13.0955 79.6208 16.4837V29.3659H77.5052Z" fill="#696969"/>
<path d="M92.9296 27.9178C92.1533 28.9407 90.4948 29.8941 88.5171 29.8941C84.7052 29.8941 82.2341 26.3652 82.2341 20.1881C82.2341 14.2941 84.3512 10.2355 87.9163 10.2355C91.3756 10.2355 93.0689 13.7296 93.2459 18.8126V19.9066H84.3874V20.4363C84.3874 26.577 86.7526 27.8829 88.5171 27.8829C89.7882 27.8829 91.4119 27.3533 92.9296 25.2V27.9178ZM91.1637 17.9652C90.9519 14.0822 89.823 12.1422 87.9526 12.1422C86.1519 12.1422 84.7415 14.4014 84.4585 17.9652H91.1637Z" fill="#696969"/>
<path d="M102.458 29.3659V16.5548C102.458 13.9429 102.07 12.2844 100.446 12.2844C99.1748 12.2844 98.0459 13.3785 97.7993 15.2488V29.3659H95.6822V10.7303H97.7993V11.8592C98.5059 10.977 99.4941 10.3763 100.658 10.3763H100.729C104.011 10.3763 104.576 13.2348 104.576 16.1644V29.3644H102.458V29.3659Z" fill="#696969"/>
<path d="M116.046 29.3659V28.6955C115.199 29.437 114.176 29.8607 113.151 29.8607C109.586 29.8607 107.151 26.3318 107.151 20.014C107.151 14.1548 109.339 10.2733 113.151 10.2733C114.21 10.2733 115.199 10.6622 116.046 11.4022V0H118.199V29.3659H116.046ZM116.046 14.0474C115.41 12.8822 114.245 12.3541 113.151 12.3541C110.716 12.3541 109.374 15.1778 109.374 20.0126C109.374 24.6355 110.821 27.7422 113.151 27.7422C114.21 27.7422 115.374 27.2837 116.046 25.9415V14.0474Z" fill="#696969"/>
<path d="M131.259 27.9178C130.482 28.9407 128.824 29.8941 126.846 29.8941C123.034 29.8941 120.563 26.3652 120.563 20.1881C120.563 14.2941 122.68 10.2355 126.245 10.2355C129.704 10.2355 131.398 13.7296 131.575 18.8126V19.9066H122.716V20.4363C122.716 26.577 125.081 27.8829 126.846 27.8829C128.117 27.8829 129.741 27.3533 131.259 25.2V27.9178ZM129.493 17.9652C129.281 14.0822 128.152 12.1422 126.281 12.1422C124.481 12.1422 123.07 14.4014 122.787 17.9652H129.493Z" fill="#696969"/>
<path d="M142.87 29.3659V28.6955C142.022 29.437 140.999 29.8607 139.975 29.8607C136.41 29.8607 133.975 26.3318 133.975 20.014C133.975 14.1548 136.163 10.2733 139.975 10.2733C141.034 10.2733 142.022 10.6622 142.87 11.4022V0H145.023V29.3659H142.87ZM142.87 14.0474C142.234 12.8822 141.069 12.3541 139.975 12.3541C137.54 12.3541 136.198 15.1778 136.198 20.0126C136.198 24.6355 137.644 27.7422 139.975 27.7422C141.034 27.7422 142.198 27.2837 142.87 25.9415V14.0474Z" fill="#696969"/>
<path d="M165.422 1.12891H167.822V20.8585C167.822 26.1882 165.951 30 161.08 30C156.209 30 154.304 26.1882 154.304 20.8585V1.12891H156.704V20.683C156.704 24.7067 157.727 27.7422 161.045 27.7422C164.399 27.7422 165.422 24.7067 165.422 20.683V1.12891Z" fill="#696969"/>
<path d="M175.058 27.6711C177.175 27.6711 178.587 25.4119 178.587 21.6C178.587 17.3993 177.14 16.0934 174.704 14.5408C171.951 12.846 170.857 10.446 170.857 7.30593C170.857 3.6711 172.693 0.564453 176.116 0.564453C177.387 0.564453 178.444 0.811128 179.433 1.44668V4.12963C178.162 3.07038 177.21 2.7526 176.185 2.7526C174.385 2.7526 173.115 4.62298 173.115 7.23483C173.115 10.7289 174.739 11.8578 176.538 13.023C178.973 14.5756 180.95 16.9059 180.95 21.5637C180.95 27.0341 178.233 29.9986 174.985 29.9986C173.362 29.9986 171.809 29.54 170.715 28.5519V25.5163C172.127 26.963 173.504 27.6697 175.022 27.6697H175.058V27.6711Z" fill="#696969"/>
<path d="M183.845 29.3659V1.09409H193.199V3.21113H186.21V13.0593H192.07V15.1778H186.21V27.2489H193.199V29.3659H183.845Z" fill="#696969"/>
<path d="M205.127 29.3659L200.892 15.9541H198.492V29.3659H196.198V1.12891H201.069C204.563 1.12891 206.222 4.44741 206.222 8.36518C206.222 8.96446 206.222 13.9067 202.903 15.5304L207.597 29.3659H205.127ZM200.751 13.9415C202.587 13.9415 203.962 11.7882 203.962 8.25926C203.962 5.29481 202.939 3.17631 200.892 3.17631H198.457V13.9415H200.751Z" fill="#696969"/>
</g>
<defs>
<clipPath id="clip0">
<rect width="207.599" height="30" fill="white"/>
</clipPath>
</defs>
</svg>
