<svg width="177" height="30" viewBox="0 0 177 30" fill="none" xmlns="http://www.w3.org/2000/svg">
<path d="M4.88026 29.2815V2.72634H0V0.538483H12.2375V2.72781H7.35579V29.283H4.88026V29.2815Z" fill="#575757"/>
<path d="M13.493 14.9993C13.493 5.13105 16.9378 0 22.3565 0C27.7398 0 31.1846 4.95254 31.1846 14.9993C31.1846 24.5813 27.8475 29.9985 22.3565 29.9985C16.8301 30 13.493 24.5813 13.493 14.9993ZM28.6722 14.9993C28.6722 7.1404 26.1967 2.22474 22.3565 2.22474C18.4809 2.22474 16.0054 7.1404 16.0054 14.9993C16.0054 22.9304 18.4809 27.703 22.3565 27.703C26.1952 27.703 28.6722 22.9304 28.6722 14.9993Z" fill="#575757"/>
<path d="M34.4495 29.2815V0.538483H39.6528C45.5023 0.538483 49.1625 5.20335 49.1625 14.7853C49.1625 24.0074 45.8254 29.283 39.5805 29.283H34.4495V29.2815ZM39.6882 27.0937C43.7792 27.0937 46.6855 23.4689 46.6855 14.9285C46.6855 5.95722 43.5992 2.72781 39.6882 2.72781H36.8527V27.0937H39.6882Z" fill="#575757"/>
<path d="M63.0494 29.2815L61.3632 21.1719H54.8675L53.1812 29.2815H50.7057L56.9845 0.538483H59.2447L65.525 29.2815H63.0494ZM59.137 9.50971C58.5985 6.85419 58.1677 4.16327 58.0969 3.76789C58.0615 4.05557 57.5938 6.8896 57.0568 9.50971L55.1906 19.0194H61.0401L59.137 9.50971Z" fill="#575757"/>
<path d="M71.4099 29.2815V16.8655L65.7035 0.538483H68.2513L72.6299 14.3546L77.0071 0.538483H79.5904L73.8839 16.8655V29.2815H71.4099Z" fill="#575757"/>
<path d="M87.5923 26.3398C88.5616 27.2014 89.4586 27.703 90.4278 27.703C92.0787 27.703 93.048 26.3398 93.048 24.0782C93.048 22.0334 92.1864 21.0273 91.1817 20.3103C90.9309 20.0949 90.5724 19.9149 90.2847 19.7364C88.4185 18.5163 87.5215 17.0086 87.5215 14.6408C87.5215 11.5913 89.3524 9.83279 91.3248 9.83279H91.6479C92.4372 9.83279 93.1556 9.9759 93.908 10.4421V12.8822C92.9757 12.0575 92.2926 11.8421 91.6479 11.8421C90.4632 11.8421 89.5309 12.7037 89.5309 14.6054C89.5309 16.7224 90.2479 17.2255 91.7202 18.1933C93.6572 19.3056 95.1296 20.9211 95.1296 24.0428C95.1296 28.0983 93.0125 29.7846 90.8586 29.7846C89.6031 29.7846 88.4908 29.5338 87.5938 28.923V26.3398H87.5923Z" fill="#575757"/>
<path d="M113.501 29.2815L109.195 15.6454H106.755V29.2815H104.422V0.573883H109.375C112.927 0.573883 114.614 3.94639 114.614 7.92967C114.614 8.53897 114.614 13.5638 111.24 15.2146L116.012 29.2815H113.501ZM109.052 13.6007C110.918 13.6007 112.317 11.4114 112.317 7.82345C112.317 4.80944 111.277 2.65552 109.195 2.65552H106.719V13.6007H109.052Z" fill="#575757"/>
<path d="M118.56 29.2815V0.538483H128.07V2.69093H120.965V12.7022H126.922V14.8547H120.965V27.1276H128.07V29.2801H118.56V29.2815Z" fill="#575757"/>
<path d="M144.434 28.7445C143.249 29.6061 141.563 30 139.912 30C134.062 30 130.295 24.0074 130.295 15.0007C130.295 6.10032 134.17 0 139.947 0C141.311 0 142.818 0.250799 144.003 1.00467V3.87558C142.64 2.62011 141.24 2.33243 139.984 2.33243C135.57 2.33243 132.842 7.46349 132.842 14.9993C132.842 22.535 135.606 27.6307 139.984 27.6307C141.455 27.6307 143.034 27.1645 144.434 25.7999V28.7445Z" fill="#575757"/>
<path d="M147.663 29.2815V0.573883H150.139V29.2815H147.663Z" fill="#575757"/>
<path d="M154.408 29.2815V0.538483H159.216C162.841 0.538483 164.563 4.19867 164.563 8.64814C164.563 13.0976 162.769 16.7947 159.252 16.7947H156.776V29.283H154.408V29.2815ZM158.965 14.6777C161.082 14.6777 162.267 12.0575 162.267 8.64814V8.50504C162.267 5.16794 161.119 2.65552 158.965 2.65552H156.741V14.6777H158.965Z" fill="#575757"/>
<path d="M167.076 29.2815V0.538483H176.586V2.69093H169.481V12.7022H175.438V14.8547H169.481V27.1276H176.586V29.2801H167.076V29.2815Z" fill="#575757"/>
<path fill-rule="evenodd" clip-rule="evenodd" d="M86.7952 5.69424C86.9613 5.63488 87.1229 5.5601 87.278 5.46991C87.5138 5.33282 87.7344 5.16064 87.9316 4.95287C89.0471 3.77841 88.9993 1.92195 87.8249 0.806366C86.6503 -0.309218 84.7938 -0.261334 83.6782 0.91312C83.4809 1.12072 83.3204 1.34981 83.1956 1.59218C83.1136 1.75173 83.0472 1.91703 82.9964 2.08593L82.9198 2.40406L82 6.93871L86.4815 5.78689L86.7952 5.69424Z" fill="#FF8C00"/>
</svg>
