<svg width="24" height="20" viewBox="0 0 24 20" fill="none" xmlns="http://www.w3.org/2000/svg">
<path d="M21.5574 5.63117C21.5574 5.41241 21.5574 5.19458 21.543 4.97859C22.5069 4.26416 23.3385 3.37897 24 2.36456C23.1009 2.77254 22.1478 3.04022 21.1713 3.15929C22.1991 2.52794 22.9686 1.53568 23.3358 0.366198C22.3701 0.954169 21.3117 1.36861 20.2092 1.59198C18.3454 -0.441454 15.226 -0.540218 13.2433 1.3723C11.9645 2.60547 11.4218 4.44323 11.8187 6.19699C7.8596 5.99392 4.17055 4.07586 1.67038 0.92094C0.363595 3.22852 1.03049 6.18037 3.19496 7.66276C2.41107 7.63876 1.64428 7.42185 0.960288 7.03049V7.09417C0.960288 9.49867 2.61267 11.569 4.91034 12.0444C4.18585 12.2475 3.42446 12.277 2.68737 12.1312C3.33176 14.1886 5.18034 15.5981 7.28721 15.6387C5.54303 17.0435 3.38936 17.8069 1.17269 17.805C0.78029 17.8041 0.388795 17.7792 0 17.7312C2.25177 19.2136 4.87164 20 7.54731 19.9963C16.6039 20 21.5574 12.3047 21.5574 5.63117Z" fill="white"/>
</svg>
