<?xml version="1.0" standalone="no"?>
<!DOCTYPE svg PUBLIC "-//W3C//DTD SVG 20010904//EN"
 "http://www.w3.org/TR/2001/REC-SVG-20010904/DTD/svg10.dtd">
<svg version="1.0" xmlns="http://www.w3.org/2000/svg"
 width="180.000000pt" height="180.000000pt" viewBox="0 0 180.000000 180.000000"
 preserveAspectRatio="xMidYMid meet">
<metadata>
Created by potrace 1.11, written by Peter Selinger 2001-2013
</metadata>
<g transform="translate(0.000000,180.000000) scale(0.100000,-0.100000)"
fill="#000000" stroke="none">
<path d="M494 1209 c-32 -36 -134 -81 -224 -99 -47 -9 -84 -21 -83 -26 1 -4
21 -13 45 -19 31 -7 49 -19 65 -44 22 -32 23 -44 23 -196 0 -152 -1 -164 -22
-195 -13 -19 -38 -38 -57 -45 -38 -12 -31 -23 32 -50 92 -38 205 -4 245 75 20
40 22 58 22 203 0 177 9 223 51 263 42 40 109 39 150 -2 37 -38 49 -103 49
-277 0 -171 20 -219 105 -258 53 -25 126 -24 175 1 43 22 59 40 36 40 -29 0
-63 22 -82 53 -17 28 -19 52 -19 202 0 200 10 235 71 261 32 13 42 14 73 2 54
-21 67 -54 95 -248 15 -96 33 -194 42 -217 43 -118 196 -147 288 -56 40 40 45
54 18 46 -10 -2 -30 1 -45 6 -41 16 -62 75 -87 245 -26 181 -47 242 -100 290
-22 20 -42 36 -44 36 -2 0 -26 4 -55 10 -101 19 -194 -16 -248 -93 l-27 -39
-18 36 c-64 124 -306 136 -397 20 -10 -13 -22 -24 -25 -24 -3 0 -6 27 -6 60 0
66 -12 76 -46 39z"/>
</g>
</svg>
