<svg width="24" height="24" viewBox="0 0 24 24" fill="none" xmlns="http://www.w3.org/2000/svg">
<path d="M20.4 13H19.8V7.9C19.8 3.54 16.26 0 11.9 0C7.54 0 4 3.54 4 7.9V13H3.4C1.52 13 0 14.53 0 16.4C0 18.27 1.52 19.8 3.4 19.8H9V20.9C9 22.5 10.3 23.8 11.9 23.8C13.5 23.8 14.8 22.5 14.8 20.9V19.8H20.4C22.28 19.8 23.8 18.27 23.8 16.4C23.8 14.53 22.27 13 20.4 13ZM13 20.9C13 21.51 12.51 22 11.9 22C11.29 22 10.8 21.51 10.8 20.9V19.8H13V20.9ZM20.4 18H14.8H9H3.4C2.52 18 1.8 17.28 1.8 16.4C1.8 15.52 2.52 14.8 3.4 14.8H16.2V13H5.8V7.9C5.8 4.54 8.54 1.8 11.9 1.8C15.26 1.8 18 4.54 18 7.9V14.8H20.4C21.28 14.8 22 15.52 22 16.4C22 17.28 21.28 18 20.4 18Z" fill="#575757"/>
</svg>

