<svg width="14" height="13" viewBox="0 0 14 13" fill="none" xmlns="http://www.w3.org/2000/svg">
<path d="M5.00065 0.333344L3.78065 1.66668H1.66732C0.933984 1.66668 0.333984 2.26668 0.333984 3.00001V11C0.333984 11.7333 0.933984 12.3333 1.66732 12.3333H12.334C13.0673 12.3333 13.6673 11.7333 13.6673 11V3.00001C13.6673 2.26668 13.0673 1.66668 12.334 1.66668H10.2207L9.00065 0.333344H5.00065ZM7.00065 10.3333C5.16065 10.3333 3.66732 8.84001 3.66732 7.00001C3.66732 5.16001 5.16065 3.66668 7.00065 3.66668C8.84065 3.66668 10.334 5.16001 10.334 7.00001C10.334 8.84001 8.84065 10.3333 7.00065 10.3333Z" fill="white"/>
</svg>
