<svg width="20" height="20" viewBox="0 0 20 20" fill="none" xmlns="http://www.w3.org/2000/svg">
<path d="M15.7333 0.833313H4.01663C2.72496 0.833313 1.66663 1.89165 1.66663 3.18331V17.35C1.66663 18.65 2.72496 19.7 4.01663 19.7H15.725C17.025 19.7 18.075 18.6416 18.075 17.35V3.18331C18.0833 1.89165 17.025 0.833313 15.7333 0.833313ZM16.625 17.35C16.625 17.8416 16.225 18.2416 15.7333 18.2416H4.01663C3.52496 18.2416 3.12496 17.8416 3.12496 17.35V3.18331C3.12496 2.69165 3.52496 2.29165 4.01663 2.29165H15.725C16.2166 2.29165 16.6166 2.69165 16.6166 3.18331V17.35H16.625ZM14.75 6.12498C14.75 6.60831 14.3583 6.99998 13.875 6.99998H9.08329C8.59996 6.99998 8.20829 6.60831 8.20829 6.12498C8.20829 5.64165 8.59996 5.24998 9.08329 5.24998H13.875C14.3583 5.24998 14.75 5.64165 14.75 6.12498ZM14.75 10.2916C14.75 10.775 14.3583 11.1666 13.875 11.1666H9.08329C8.59996 11.1666 8.20829 10.775 8.20829 10.2916C8.20829 9.80831 8.59996 9.41665 9.08329 9.41665H13.875C14.3583 9.41665 14.75 9.80831 14.75 10.2916ZM14.75 14.4583C14.75 14.9416 14.3583 15.3333 13.875 15.3333H9.08329C8.59996 15.3333 8.20829 14.9416 8.20829 14.4583C8.20829 13.975 8.59996 13.5833 9.08329 13.5833H13.875C14.3583 13.5833 14.75 13.975 14.75 14.4583ZM7.39996 6.12498C7.39996 6.81665 6.84163 7.37498 6.14996 7.37498C5.45829 7.37498 4.89996 6.81665 4.89996 6.12498C4.89996 5.43331 5.45829 4.87498 6.14996 4.87498C6.84163 4.87498 7.39996 5.43331 7.39996 6.12498ZM7.39996 10.2666C7.39996 10.9583 6.84163 11.5166 6.14996 11.5166C5.45829 11.5166 4.89996 10.9583 4.89996 10.2666C4.89996 9.57498 5.45829 9.01665 6.14996 9.01665C6.84163 9.01665 7.39996 9.57498 7.39996 10.2666ZM7.39996 14.4583C7.39996 15.15 6.84163 15.7083 6.14996 15.7083C5.45829 15.7083 4.89996 15.15 4.89996 14.4583C4.89996 13.7666 5.45829 13.2083 6.14996 13.2083C6.84163 13.2083 7.39996 13.7666 7.39996 14.4583Z" fill="#575757"/>
</svg>
