<svg width="14" height="15" viewBox="0 0 14 15" fill="none" xmlns="http://www.w3.org/2000/svg">
<g clip-path="url(#clip0)">
<path d="M6.95914 1.13083C3.40664 1.13083 0.513306 4.02416 0.513306 7.57666C0.513306 11.1292 3.40664 14.0225 6.95914 14.0225C10.5116 14.0225 13.405 11.1292 13.405 7.57666C13.405 4.02416 10.5116 1.13083 6.95914 1.13083ZM6.95914 12.7975C4.07747 12.7975 1.73831 10.4525 1.73831 7.57666C1.73831 4.70083 4.08331 2.35583 6.95914 2.35583C9.83497 2.35583 12.18 4.70083 12.18 7.57666C12.18 10.4525 9.83497 12.7975 6.95914 12.7975ZM10.0916 9.3325C9.98081 9.53083 9.77081 9.6475 9.55497 9.6475C9.45581 9.6475 9.35081 9.62416 9.25747 9.57166L6.65581 8.11916C6.46331 8.00833 6.34081 7.80416 6.34081 7.5825V4.11166C6.34081 3.77333 6.61497 3.49916 6.95331 3.49916C7.29164 3.49916 7.56581 3.77333 7.56581 4.11166V7.22083L9.85247 8.49833C10.1558 8.66166 10.2608 9.035 10.0916 9.3325Z" fill="#575757"/>
</g>
<defs>
<clipPath id="clip0">
<rect width="14" height="14" fill="white" transform="translate(0 0.599976)"/>
</clipPath>
</defs>
</svg>
