<svg width="24" height="24" viewBox="0 0 24 24" fill="none" xmlns="http://www.w3.org/2000/svg">
<path d="M23.2902 14.95C23.0802 15.19 22.7902 15.31 22.5002 15.31C22.2502 15.31 22.0102 15.22 21.8102 15.05L19.8102 13.29C19.1702 13.77 18.4502 14.23 17.6402 14.63L18.5502 16.28C18.8302 16.79 18.6502 17.43 18.1402 17.71C17.9802 17.8 17.8002 17.84 17.6302 17.84C17.2602 17.84 16.9002 17.65 16.7102 17.3L15.6702 15.43C14.8602 15.68 13.9802 15.85 13.0502 15.93V18.22C13.0502 18.8 12.5802 19.27 12.0002 19.27C11.4202 19.27 10.9502 18.8 10.9502 18.22V15.93C10.0402 15.85 9.17017 15.68 8.37017 15.44L7.29017 17.39C7.10017 17.74 6.74017 17.93 6.37017 17.93C6.20017 17.93 6.02017 17.89 5.86017 17.8C5.35017 17.52 5.17017 16.88 5.45017 16.37L6.40017 14.65C5.60017 14.25 4.88017 13.8 4.24017 13.33L2.18017 15.14C1.98017 15.31 1.73017 15.4 1.49017 15.4C1.20017 15.4 0.910169 15.28 0.700169 15.04C0.320169 14.6 0.360169 13.94 0.800169 13.56L2.62017 11.96C1.38017 10.77 0.690169 9.74997 0.620169 9.64997C0.300169 9.16997 0.440169 8.51997 0.920169 8.19997C1.40017 7.87997 2.06017 8.00997 2.38017 8.49997C2.41017 8.54997 6.03017 13.88 12.0002 13.88C17.9702 13.88 21.5902 8.54997 21.6202 8.49997C21.9402 8.01997 22.5902 7.88997 23.0702 8.19997C23.5502 8.51997 23.6902 9.16997 23.3702 9.64997C23.3002 9.74997 22.6302 10.74 21.4202 11.91L23.1902 13.46C23.6302 13.85 23.6702 14.51 23.2902 14.95Z" fill="#575757"/>
</svg>
