<svg width="20" height="13" viewBox="0 0 20 13" fill="none" xmlns="http://www.w3.org/2000/svg">
<path fill-rule="evenodd" clip-rule="evenodd" d="M19.8599 6.32191C19.6766 6.09691 15.4099 0.871907 11.0599 0.38024C10.6599 0.313573 10.1099 0.321907 9.74323 0.38024C9.54323 0.40524 9.35157 0.446907 9.15157 0.488573C9.14323 0.488573 9.1349 0.488573 9.12657 0.496907C8.9349 0.53024 8.74323 0.588573 8.55157 0.638573C8.54323 0.638573 8.5349 0.646907 8.52657 0.646907C4.6099 1.82191 1.0849 6.12191 0.926566 6.32191C0.876566 6.38857 0.851566 6.46357 0.843233 6.54691C0.818233 6.67191 0.843233 6.80524 0.926566 6.91357C1.1099 7.13857 5.37657 12.3636 9.72657 12.8552C9.92657 12.8886 10.1432 12.9052 10.3932 12.9052C10.6432 12.9052 10.8599 12.8886 11.0349 12.8552C15.4016 12.3636 19.6766 7.13857 19.8599 6.91357C19.9099 6.84691 19.9432 6.77191 19.9432 6.68857C19.9766 6.56357 19.9516 6.43024 19.8599 6.32191ZM10.3932 11.4469C7.72657 11.4469 5.5599 9.28024 5.5599 6.61357C5.5599 3.94691 7.72657 1.78024 10.3932 1.78024C13.0599 1.78024 15.2266 3.94691 15.2266 6.61357C15.2266 9.28024 13.0599 11.4469 10.3932 11.4469Z" fill="#999999"/>
<path d="M10.3939 9.95524C12.2348 9.95524 13.7272 8.46286 13.7272 6.62191C13.7272 4.78096 12.2348 3.28857 10.3939 3.28857C8.55293 3.28857 7.06055 4.78096 7.06055 6.62191C7.06055 8.46286 8.55293 9.95524 10.3939 9.95524Z" fill="#999999"/>
</svg>
