<svg width="20" height="20" viewBox="0 0 20 20" fill="none" xmlns="http://www.w3.org/2000/svg">
<path d="M13.8501 1.20829C12.4251 1.20829 10.9251 1.87496 10.0001 3.16662C9.07512 1.87496 7.56679 1.20829 6.15012 1.20829C2.96679 1.20829 0.375122 3.79996 0.375122 6.98329C0.375122 8.43329 0.916789 9.81662 1.91679 10.9C2.82512 12.1166 8.70846 17.925 9.38346 18.5916C9.55012 18.7583 9.77512 18.8416 10.0001 18.8416C10.2251 18.8416 10.4418 18.7583 10.6168 18.5916C11.2918 17.925 17.1668 12.1333 18.0835 10.9083C19.0835 9.83329 19.6251 8.44162 19.6251 6.98329C19.6251 3.79996 17.0335 1.20829 13.8501 1.20829Z" fill="#575757"/>
</svg>
