<svg width="24" height="24" viewBox="0 0 24 24" fill="none" xmlns="http://www.w3.org/2000/svg">
<path d="M16.6202 1.4502C14.9102 1.4502 13.1102 2.2502 12.0002 3.8002C10.8902 2.2502 9.0802 1.4502 7.3802 1.4502C3.5602 1.4502 0.450195 4.5602 0.450195 8.3802C0.450195 10.1202 1.1002 11.7802 2.3002 13.0802C3.3902 14.5402 10.4502 21.5102 11.2602 22.3102C11.4602 22.5102 11.7302 22.6102 12.0002 22.6102C12.2702 22.6102 12.5302 22.5102 12.7402 22.3102C13.5502 21.5102 20.6002 14.5602 21.7002 13.0902C22.9002 11.8002 23.5502 10.1302 23.5502 8.3802C23.5502 4.5602 20.4402 1.4502 16.6202 1.4502Z" fill="url(#paint0_linear)"/>
<defs>
<linearGradient id="paint0_linear" x1="12.0002" y1="1.4502" x2="12.0002" y2="22.6102" gradientUnits="userSpaceOnUse">
<stop stop-color="#F84C75"/>
<stop offset="1" stop-color="#FF8E3C"/>
</linearGradient>
</defs>
</svg>
