<svg width="24" height="24" viewBox="0 0 24 24" fill="none" xmlns="http://www.w3.org/2000/svg">
<path d="M19.8695 8.10977H3.81953C3.23953 8.10977 2.76953 7.63977 2.76953 7.05977C2.76953 6.47977 3.23953 6.00977 3.81953 6.00977H19.8695C20.4495 6.00977 20.9195 6.47977 20.9195 7.05977C20.9195 7.63977 20.4495 8.10977 19.8695 8.10977Z" fill="#040000"/>
<path d="M17.8695 13.1293H5.81953C5.23953 13.1293 4.76953 12.6593 4.76953 12.0793C4.76953 11.4993 5.23953 11.0293 5.81953 11.0293H17.8695C18.4495 11.0293 18.9195 11.4993 18.9195 12.0793C18.9195 12.6593 18.4495 13.1293 17.8695 13.1293Z" fill="#040000"/>
<path d="M15.8695 18.1596H7.81953C7.23953 18.1596 6.76953 17.6896 6.76953 17.1096C6.76953 16.5296 7.23953 16.0596 7.81953 16.0596H15.8695C16.4495 16.0596 16.9195 16.5296 16.9195 17.1096C16.9195 17.6896 16.4495 18.1596 15.8695 18.1596Z" fill="#040000"/>
</svg>

