<svg width="88" height="88" viewBox="0 0 88 88" fill="none" xmlns="http://www.w3.org/2000/svg">
<rect x="0.5" y="0.5" width="87" height="87" rx="3.5" fill="#F5F5F5" stroke="#E5E5E5"/>
<path d="M55.9998 21.6357V36.6252C55.9998 40.1405 53.14 43.0002 49.6248 43.0002H34.6353C35.6628 44.3637 37.2895 45.2502 39.1248 45.2502H49.6248C54.3805 45.2502 58.2498 41.381 58.2498 36.6252V26.1252C58.2498 24.2907 57.3633 22.6632 55.9998 21.6357Z" fill="#8B8B8B"/>
<path d="M42.6146 31.2055C42.3521 30.9445 41.8969 30.9445 41.6344 31.2055L32.2759 40.5648C33.1654 41.1543 34.2304 41.5 35.3749 41.5H48.8749C50.0194 41.5 51.0844 41.1543 51.9739 40.5648L42.6146 31.2055Z" fill="#8B8B8B"/>
<path d="M48.875 16.75H35.375C32.273 16.75 29.75 19.273 29.75 22.375V35.875C29.75 37.0195 30.0958 38.0845 30.6853 38.974L40.0445 29.6147C41.156 28.5032 43.094 28.5032 44.2062 29.6147L53.5655 38.974C54.1543 38.0845 54.5 37.0195 54.5 35.875V22.375C54.5 19.273 51.977 16.75 48.875 16.75ZM47.375 25.75C46.3393 25.75 45.5 24.9107 45.5 23.875C45.5 22.8392 46.3393 22 47.375 22C48.4107 22 49.25 22.8392 49.25 23.875C49.25 24.9107 48.4107 25.75 47.375 25.75Z" fill="#8B8B8B"/>
<path d="M18.2 66H19.256V61.38C19.256 60.456 19.172 59.52 19.124 58.632H19.172L20.12 60.444L23.324 66H24.464V57.204H23.408V61.776C23.408 62.688 23.492 63.672 23.552 64.56H23.492L22.556 62.748L19.352 57.204H18.2V66ZM29.2962 66.156C30.8922 66.156 32.3202 64.908 32.3202 62.748C32.3202 60.576 30.8922 59.316 29.2962 59.316C27.7002 59.316 26.2722 60.576 26.2722 62.748C26.2722 64.908 27.7002 66.156 29.2962 66.156ZM29.2962 65.244C28.1682 65.244 27.4122 64.248 27.4122 62.748C27.4122 61.248 28.1682 60.228 29.2962 60.228C30.4242 60.228 31.1922 61.248 31.1922 62.748C31.1922 64.248 30.4242 65.244 29.2962 65.244ZM36.8211 66H37.9371V57.204H36.8211V66ZM40.2407 66H41.3327V61.272C41.9327 60.6 42.4847 60.276 42.9767 60.276C43.8047 60.276 44.1887 60.792 44.1887 62.016V66H45.2807V61.272C45.8927 60.6 46.4207 60.276 46.9247 60.276C47.7527 60.276 48.1367 60.792 48.1367 62.016V66H49.2287V61.872C49.2287 60.204 48.5927 59.316 47.2487 59.316C46.4567 59.316 45.7727 59.832 45.1007 60.564C44.8367 59.796 44.2967 59.316 43.3007 59.316C42.5207 59.316 41.8367 59.808 41.2727 60.432H41.2367L41.1407 59.484H40.2407V66ZM52.8501 66.156C53.6541 66.156 54.3861 65.736 55.0101 65.22H55.0461L55.1421 66H56.0421V61.992C56.0421 60.384 55.3701 59.316 53.7861 59.316C52.7421 59.316 51.8181 59.784 51.2181 60.168L51.6501 60.924C52.1661 60.576 52.8501 60.228 53.6061 60.228C54.6741 60.228 54.9501 61.032 54.9501 61.872C52.1781 62.184 50.9421 62.892 50.9421 64.308C50.9421 65.484 51.7581 66.156 52.8501 66.156ZM53.1621 65.28C52.5141 65.28 52.0101 64.98 52.0101 64.236C52.0101 63.396 52.7541 62.856 54.9501 62.592V64.416C54.3141 64.98 53.7981 65.28 53.1621 65.28ZM60.3195 69C62.3355 69 63.6075 67.956 63.6075 66.744C63.6075 65.676 62.8515 65.196 61.3395 65.196H60.0675C59.1915 65.196 58.9275 64.908 58.9275 64.488C58.9275 64.128 59.1075 63.912 59.3475 63.708C59.6355 63.852 59.9955 63.936 60.3195 63.936C61.6395 63.936 62.6955 63.06 62.6955 61.668C62.6955 61.104 62.4795 60.624 62.1675 60.324H63.4995V59.484H61.2315C61.0035 59.4 60.6795 59.316 60.3195 59.316C58.9995 59.316 57.8715 60.216 57.8715 61.644C57.8715 62.424 58.2915 63.048 58.7235 63.396V63.444C58.3875 63.684 57.9915 64.116 57.9915 64.656C57.9915 65.172 58.2435 65.52 58.5915 65.724V65.772C57.9795 66.168 57.6195 66.696 57.6195 67.248C57.6195 68.376 58.7235 69 60.3195 69ZM60.3195 63.192C59.5635 63.192 58.9275 62.592 58.9275 61.644C58.9275 60.684 59.5515 60.12 60.3195 60.12C61.0875 60.12 61.6995 60.696 61.6995 61.644C61.6995 62.592 61.0635 63.192 60.3195 63.192ZM60.4755 68.256C59.2875 68.256 58.5795 67.8 58.5795 67.104C58.5795 66.72 58.7835 66.336 59.2515 66C59.5395 66.072 59.8515 66.108 60.0915 66.108H61.2195C62.0835 66.108 62.5515 66.312 62.5515 66.912C62.5515 67.596 61.7235 68.256 60.4755 68.256ZM67.3375 66.156C68.2255 66.156 68.9215 65.856 69.4975 65.484L69.1015 64.764C68.6215 65.088 68.1055 65.28 67.4695 65.28C66.2335 65.28 65.3815 64.392 65.3095 63H69.7015C69.7255 62.844 69.7495 62.616 69.7495 62.376C69.7495 60.516 68.8135 59.316 67.1575 59.316C65.6455 59.316 64.2175 60.636 64.2175 62.748C64.2175 64.896 65.6095 66.156 67.3375 66.156ZM65.2975 62.22C65.4295 60.936 66.2455 60.192 67.1695 60.192C68.1895 60.192 68.7895 60.9 68.7895 62.22H65.2975Z" fill="#8B8B8B"/>
</svg>

