<svg width="32" height="32" viewBox="0 0 32 32" fill="none" xmlns="http://www.w3.org/2000/svg">
<path d="M15.9991 20.2667C18.3555 20.2667 20.2658 18.3565 20.2658 16.0001C20.2658 13.6436 18.3555 11.7334 15.9991 11.7334C13.6427 11.7334 11.7324 13.6436 11.7324 16.0001C11.7324 18.3565 13.6427 20.2667 15.9991 20.2667Z" fill="#B2B2B2"/>
<path d="M11.9993 2.66675L9.55935 5.33341H5.33268C3.86602 5.33341 2.66602 6.53341 2.66602 8.00008V24.0001C2.66602 25.4667 3.86602 26.6667 5.33268 26.6667H26.666C28.1327 26.6667 29.3327 25.4667 29.3327 24.0001V8.00008C29.3327 6.53341 28.1327 5.33341 26.666 5.33341H22.4394L19.9993 2.66675H11.9993ZM15.9993 22.6667C12.3193 22.6667 9.33268 19.6801 9.33268 16.0001C9.33268 12.3201 12.3193 9.33342 15.9993 9.33342C19.6793 9.33342 22.666 12.3201 22.666 16.0001C22.666 19.6801 19.6793 22.6667 15.9993 22.6667Z" fill="#B2B2B2"/>
</svg>
