<svg width="24" height="24" viewBox="0 0 24 24" fill="none" xmlns="http://www.w3.org/2000/svg">
<path d="M16.6202 1.44995C14.9102 1.44995 13.1102 2.24995 12.0002 3.79995C10.8902 2.24995 9.0802 1.44995 7.3802 1.44995C3.5602 1.44995 0.450195 4.55995 0.450195 8.37995C0.450195 10.13 1.1102 11.8 2.3002 13.09C3.3902 14.55 10.4502 21.52 11.2602 22.32C11.4602 22.52 11.7302 22.62 12.0002 22.62C12.2702 22.62 12.5302 22.52 12.7402 22.32C13.5502 21.52 20.6002 14.57 21.7002 13.1C22.9002 11.81 23.5502 10.14 23.5502 8.38995C23.5502 4.55995 20.4402 1.44995 16.6202 1.44995ZM20.1402 11.68C20.0902 11.73 20.0502 11.78 20.0102 11.84C19.3302 12.76 15.1102 17.01 12.0102 20.08C8.9102 17.02 4.7102 12.78 4.0102 11.85C3.9702 11.79 3.9302 11.74 3.8902 11.69C3.0302 10.79 2.5602 9.60995 2.5602 8.36995C2.5602 5.70995 4.7302 3.53995 7.3902 3.53995C8.5102 3.53995 10.6902 4.22995 10.9702 6.82995C11.0302 7.35995 11.4802 7.76995 12.0102 7.76995C12.5402 7.76995 13.0002 7.36995 13.0502 6.82995C13.3302 4.22995 15.5102 3.53995 16.6302 3.53995C19.2902 3.53995 21.4602 5.70995 21.4602 8.36995C21.4502 9.61995 20.9802 10.8 20.1402 11.68Z" fill="#C2C2C2"/>
</svg>
