<svg width="16" height="16" viewBox="0 0 16 16" fill="none" xmlns="http://www.w3.org/2000/svg">
<path d="M8.03329 0.666992C3.97329 0.666992 0.666626 3.97366 0.666626 8.03366C0.666626 12.0937 3.97329 15.4003 8.03329 15.4003C12.0933 15.4003 15.4 12.0937 15.4 8.03366C15.4 3.97366 12.0933 0.666992 8.03329 0.666992ZM8.03329 14.0003C4.73996 14.0003 2.06663 11.3203 2.06663 8.03366C2.06663 4.74699 4.73996 2.06699 8.03329 2.06699C11.3266 2.06699 14 4.74699 14 8.03366C14 11.3203 11.32 14.0003 8.03329 14.0003ZM11.1266 4.16699C11.4 4.44033 11.4 4.88033 11.1266 5.15366L8.77996 7.50033V7.57366H10.1C10.4866 7.57366 10.8 7.88699 10.8 8.27366C10.8 8.66033 10.4866 8.97366 10.1 8.97366H8.77996V9.70699H10.1C10.4866 9.70699 10.8 10.0203 10.8 10.407C10.8 10.7937 10.4866 11.107 10.1 11.107H8.77996V12.247C8.77996 12.6337 8.46663 12.947 8.07996 12.947C7.69329 12.947 7.37996 12.6337 7.37996 12.247V11.107H6.05996C5.67329 11.107 5.35996 10.7937 5.35996 10.407C5.35996 10.0203 5.67329 9.70699 6.05996 9.70699H7.37996V8.97366H6.05996C5.67329 8.97366 5.35996 8.66033 5.35996 8.27366C5.35996 7.88699 5.67329 7.57366 6.05996 7.57366H7.37329L4.94663 5.15366C4.67329 4.88033 4.67329 4.44033 4.94663 4.16699C5.21996 3.89366 5.65996 3.89366 5.93329 4.16699L8.03329 6.26699L10.1333 4.16699C10.4133 3.89366 10.8533 3.89366 11.1266 4.16699Z" fill="#575757"/>
</svg>
