<svg width="24" height="24" viewBox="0 0 24 24" fill="none" xmlns="http://www.w3.org/2000/svg">
<path d="M6.72004 8.34V14.24C6.72004 14.92 6.16004 15.29 5.63004 15.29C5.25004 15.29 4.91004 15.11 4.72004 14.81L2.19004 10.73V14.57C2.19004 15.03 1.77004 15.27 1.37004 15.27C0.960039 15.27 0.540039 15.03 0.540039 14.57V8.7C0.540039 8 1.11004 7.63 1.64004 7.63C2.01004 7.63 2.35004 7.81001 2.54004 8.10001L5.07004 12.18V8.34C5.07004 7.41 6.72004 7.4 6.72004 8.34ZM12.89 13.56H9.53004V12.11H12.5C13 12.11 13.28 11.7 13.28 11.31C13.28 10.91 13.01 10.51 12.49 10.51H9.53004L9.52004 9.35001H12.86C13.37 9.35001 13.65 8.94 13.65 8.55C13.65 8.15 13.38 7.75 12.86 7.75H9.04004C8.28004 7.75 7.87004 8.17 7.87004 8.92V14C7.87004 14.76 8.29004 15.17 9.04004 15.17H12.89C13.4 15.17 13.67 14.76 13.67 14.37C13.68 13.96 13.41 13.56 12.89 13.56ZM22.61 7.64C22.21 7.64 21.89 7.87001 21.8 8.22001L20.87 12.02L20.02 8.67C19.89 8.15 19.39 7.92 18.95 7.92C18.42 7.92 18 8.21 17.88 8.67L17.08 12L16.14 8.22001C16.05 7.87001 15.74 7.64 15.33 7.64C14.91 7.64 14.48 7.90001 14.48 8.39001C14.48 8.45001 14.48 8.53001 14.5 8.60001L16.01 14.51C16.13 14.97 16.56 15.28 17.07 15.28C17.59 15.28 18.01 14.97 18.12 14.51L18.97 11.08L19.8 14.51C19.93 15.05 20.42 15.29 20.85 15.29C21.36 15.29 21.79 14.98 21.91 14.52L23.42 8.63C23.45 8.54 23.45 8.46 23.45 8.4C23.46 7.89 23.03 7.64 22.61 7.64Z" fill="#575757"/>
</svg>
