<svg width="12" height="12" viewBox="0 0 12 12" fill="none" xmlns="http://www.w3.org/2000/svg">
<path fill-rule="evenodd" clip-rule="evenodd" d="M1.513 1.29493C1.513 0.708635 2.05602 0.000204533 2.73048 0.000204533L10.339 0.001083C10.3658 -0.000266333 11.1752 -0.0353029 11.6569 0.430316C11.8948 0.660278 12.0101 0.967976 11.9993 1.345C11.997 1.4261 11.93 1.49066 11.8479 1.49081L11.3713 1.49169V10.9214C11.3713 10.9366 11.3688 10.9516 11.3642 10.9662C11.3292 11.0769 11.0072 12.0492 10.4213 11.9933L1.58231 11.9939C1.53575 11.9977 1.48479 12 1.43065 12C0.907399 12 0.0876989 11.792 0.00640565 10.9664C-0.000419339 10.8975 -0.0002701 7.81805 0.0001849 7.79287C0.0020049 7.71147 0.0694965 7.64647 0.151851 7.64647H0.152148L1.5047 7.65028L1.513 1.29493ZM10.3464 0.300902L2.73077 0.300024C2.23831 0.300024 1.81633 0.847295 1.81633 1.29522L1.80804 7.76037L1.80959 7.76567C1.81299 7.77711 1.81638 7.78855 1.81633 7.80107C1.81631 7.81336 1.81294 7.82465 1.80959 7.8359L1.80804 7.84118L1.80419 10.784C1.83528 10.9519 1.81804 11.2563 1.56839 11.4138C1.54306 11.4299 1.51484 11.4375 1.48693 11.4375C1.43688 11.4375 1.38793 11.413 1.35896 11.3682C1.31392 11.2984 1.3345 11.2057 1.40517 11.1612C1.55092 11.0691 1.50442 10.832 1.50382 10.8297C1.50154 10.8194 1.50056 10.809 1.50056 10.7984L1.50441 7.94981L0.303222 7.94658C0.303222 8.55387 0.304155 10.839 0.308554 10.943C0.391667 11.7843 1.52135 11.6991 1.56928 11.6946L10.4352 11.694C10.7111 11.7231 10.9733 11.1819 11.068 10.8976V1.49198L6.06299 1.50018C5.97927 1.50018 5.91148 1.43331 5.91132 1.35056C5.91117 1.26781 5.97882 1.20051 6.0627 1.20036L11.6921 1.19099C11.6724 0.968225 11.5898 0.785234 11.4457 0.645519C11.0598 0.271644 10.3531 0.300153 10.3464 0.300902ZM4.54633 1.20036C4.46261 1.20036 4.39466 1.26752 4.39466 1.35027C4.39466 1.43302 4.46261 1.50018 4.54633 1.50018H5.30466C5.38838 1.50018 5.45633 1.43302 5.45633 1.35027C5.45633 1.26752 5.38838 1.20036 5.30466 1.20036H4.54633ZM2.423 2.6245C2.423 2.58313 2.45697 2.54955 2.49883 2.54955H5.98716C6.02902 2.54955 6.06299 2.58313 6.06299 2.6245C6.06299 2.66588 6.02902 2.69946 5.98716 2.69946H2.49883C2.45697 2.69946 2.423 2.66588 2.423 2.6245ZM6.44216 2.54955C6.4003 2.54955 6.36632 2.58313 6.36632 2.6245C6.36632 2.66588 6.4003 2.69946 6.44216 2.69946H8.56549C8.60735 2.69946 8.64132 2.66588 8.64132 2.6245C8.64132 2.58313 8.60735 2.54955 8.56549 2.54955H6.44216ZM8.94465 2.6245C8.94465 2.58313 8.97863 2.54955 9.02049 2.54955H10.6888C10.7307 2.54955 10.7647 2.58313 10.7647 2.6245C10.7647 2.66588 10.7307 2.69946 10.6888 2.69946H9.02049C8.97863 2.69946 8.94465 2.66588 8.94465 2.6245ZM2.49883 3.449C2.45697 3.449 2.423 3.48258 2.423 3.52396C2.423 3.56533 2.45697 3.59891 2.49883 3.59891H5.22883C5.27069 3.59891 5.30466 3.56533 5.30466 3.52396C5.30466 3.48258 5.27069 3.449 5.22883 3.449H2.49883ZM5.60799 3.52396C5.60799 3.48258 5.64196 3.449 5.68383 3.449H10.6888C10.7307 3.449 10.7647 3.48258 10.7647 3.52396C10.7647 3.56533 10.7307 3.59891 10.6888 3.59891H5.68383C5.64196 3.59891 5.60799 3.56533 5.60799 3.52396ZM2.49883 4.64828C2.45697 4.64828 2.423 4.68186 2.423 4.72324V7.12179C2.423 7.16316 2.45697 7.19674 2.49883 7.19674H5.07716C5.11902 7.19674 5.15299 7.16316 5.15299 7.12179V5.17296C5.15299 5.13159 5.11902 5.09801 5.07716 5.09801C5.0353 5.09801 5.00133 5.13159 5.00133 5.17296V7.04683H2.57466V4.79819H4.62216C4.66402 4.79819 4.69799 4.76461 4.69799 4.72324C4.69799 4.68186 4.66402 4.64828 4.62216 4.64828H2.49883ZM5.91132 5.02306C5.91132 4.98168 5.9453 4.9481 5.98716 4.9481H10.6888C10.7307 4.9481 10.7647 4.98168 10.7647 5.02306C10.7647 5.06443 10.7307 5.09801 10.6888 5.09801H5.98716C5.9453 5.09801 5.91132 5.06443 5.91132 5.02306ZM5.98716 5.99747C5.9453 5.99747 5.91132 6.03105 5.91132 6.07242C5.91132 6.1138 5.9453 6.14738 5.98716 6.14738H10.6888C10.7307 6.14738 10.7647 6.1138 10.7647 6.07242C10.7647 6.03105 10.7307 5.99747 10.6888 5.99747H5.98716ZM5.91132 7.12179C5.91132 7.08041 5.9453 7.04683 5.98716 7.04683H10.6888C10.7307 7.04683 10.7647 7.08041 10.7647 7.12179C10.7647 7.16316 10.7307 7.19674 10.6888 7.19674H5.98716C5.9453 7.19674 5.91132 7.16316 5.91132 7.12179ZM2.49883 8.24611C2.45697 8.24611 2.423 8.27969 2.423 8.32107C2.423 8.36244 2.45697 8.39602 2.49883 8.39602H7.20049C7.24235 8.39602 7.27632 8.36244 7.27632 8.32107C7.27632 8.27969 7.24235 8.24611 7.20049 8.24611H2.49883ZM7.88299 8.32107C7.88299 8.27969 7.91696 8.24611 7.95882 8.24611H10.5372C10.579 8.24611 10.613 8.27969 10.613 8.32107V10.7196C10.613 10.761 10.579 10.7946 10.5372 10.7946H8.56549C8.52363 10.7946 8.48965 10.761 8.48965 10.7196C8.48965 10.6782 8.52363 10.6447 8.56549 10.6447H10.4613V8.39602H8.03465V10.4198C8.03465 10.4612 8.00068 10.4948 7.95882 10.4948C7.91696 10.4948 7.88299 10.4612 7.88299 10.4198V8.32107ZM2.49883 9.29548C2.45697 9.29548 2.423 9.32906 2.423 9.37043C2.423 9.41181 2.45697 9.44539 2.49883 9.44539H7.20049C7.24235 9.44539 7.27632 9.41181 7.27632 9.37043C7.27632 9.32906 7.24235 9.29548 7.20049 9.29548H2.49883ZM2.423 10.4198C2.423 10.3784 2.45697 10.3448 2.49883 10.3448H7.20049C7.24235 10.3448 7.27632 10.3784 7.27632 10.4198C7.27632 10.4612 7.24235 10.4948 7.20049 10.4948H2.49883C2.45697 10.4948 2.423 10.4612 2.423 10.4198Z" fill="#333333"/>
</svg>

