<svg width="355" height="354" viewBox="0 0 355 354" fill="none" xmlns="http://www.w3.org/2000/svg">
<path d="M205.237 179.133H144.237C115.262 179.133 91.624 202.77 91.624 231.745V261.483H257.849V231.745C257.849 202.77 234.212 179.133 205.237 179.133ZM244.124 247.758H105.349V231.745C105.349 210.319 122.81 192.858 144.237 192.858H205.237C226.663 192.858 244.124 210.319 244.124 231.745V247.758Z" fill="#999999"/>
<path d="M167.874 169.297V155.114C158.19 152.14 151.099 143.219 151.099 132.62V124.995C151.099 111.957 161.698 101.358 174.737 101.358C187.775 101.358 198.374 111.957 198.374 124.995V132.62C198.374 143.219 191.283 152.14 181.599 155.114V169.297C198.908 166.094 212.099 150.844 212.099 132.62V124.995C212.099 104.408 195.324 87.6328 174.737 87.6328C154.149 87.6328 137.374 104.408 137.374 124.995V132.62C137.374 150.844 150.565 166.094 167.874 169.297Z" fill="#999999"/>
<rect x="90.314" y="80" width="260" height="8" rx="4" transform="rotate(45 90.314 80)" fill="#969899"/>
<rect x="84.657" y="85.6562" width="260" height="8" transform="rotate(45 84.657 85.6562)" fill="white"/>
</svg>
