<svg width="24" height="24" viewBox="0 0 24 24" fill="none" xmlns="http://www.w3.org/2000/svg">
<path d="M23.3798 11.42C23.2098 11.16 19.1298 5.09998 11.9998 5.09998C4.86977 5.09998 0.789766 11.16 0.619766 11.42C0.389766 11.77 0.389766 12.23 0.619766 12.58C0.789766 12.84 4.86977 18.9 11.9998 18.9C19.1298 18.9 23.2098 12.83 23.3798 12.57C23.6098 12.23 23.6098 11.77 23.3798 11.42ZM11.9998 16.8C7.21977 16.8 3.94977 13.39 2.81977 12C3.94977 10.61 7.21977 7.19998 11.9998 7.19998C16.7798 7.19998 20.0498 10.61 21.1798 12C20.0498 13.39 16.7798 16.8 11.9998 16.8ZM15.9598 12C15.9598 14.18 14.1898 15.96 11.9998 15.96C9.80976 15.96 8.03977 14.18 8.03977 12C8.03977 9.81998 9.81977 8.03998 11.9998 8.03998C12.5998 8.03998 13.1698 8.18998 13.6798 8.42998C13.1798 8.49998 12.7398 8.75998 12.4398 9.12998C12.2098 9.40998 12.0598 9.75998 12.0198 10.14C12.0098 10.22 11.9998 10.29 11.9998 10.36C11.9998 11.4 12.8098 12.23 13.8298 12.3C13.8698 12.3 13.9098 12.31 13.9598 12.31C14.3098 12.31 14.6298 12.21 14.9098 12.05C15.3298 11.81 15.6598 11.43 15.8098 10.96C15.8898 11.3 15.9598 11.64 15.9598 12Z" fill="#575757"/>
</svg>
