<svg width="14" height="14" viewBox="0 0 14 14" fill="none" xmlns="http://www.w3.org/2000/svg">
<path d="M9.27504 7.58333H4.60837C2.39171 7.58333 0.583374 9.39166 0.583374 11.6083V13.8833H13.3V11.6083C13.3 9.39166 11.4917 7.58333 9.27504 7.58333ZM12.25 12.8333H1.63337V11.6083C1.63337 9.96916 2.96921 8.63333 4.60837 8.63333H9.27504C10.9142 8.63333 12.25 9.96916 12.25 11.6083V12.8333Z" fill="#999999"/>
<path d="M6.41671 6.83083V5.74583C5.67587 5.51833 5.13337 4.83583 5.13337 4.02499V3.44166C5.13337 2.44416 5.94421 1.63333 6.94171 1.63333C7.93921 1.63333 8.75004 2.44416 8.75004 3.44166V4.02499C8.75004 4.83583 8.20754 5.51833 7.46671 5.74583V6.83083C8.79088 6.58583 9.80004 5.41916 9.80004 4.02499V3.44166C9.80004 1.86666 8.51671 0.583328 6.94171 0.583328C5.36671 0.583328 4.08337 1.86666 4.08337 3.44166V4.02499C4.08337 5.41916 5.09254 6.58583 6.41671 6.83083Z" fill="#999999"/>
</svg>
