<svg width="20" height="20" viewBox="0 0 20 20" fill="none" xmlns="http://www.w3.org/2000/svg">
<path d="M19.5417 7.78327C19.4417 7.48327 19.1833 7.2666 18.875 7.2166L13.2583 6.39993L10.75 1.3166C10.4667 0.749935 9.54167 0.749935 9.25834 1.3166L6.75001 6.39993L1.13334 7.2166C0.816676 7.25827 0.558342 7.48327 0.466676 7.78327C0.358342 8.08327 0.441676 8.40827 0.666676 8.63327L4.73334 12.5916L3.77501 18.1833C3.72501 18.4916 3.85001 18.8083 4.10834 18.9999C4.36668 19.1833 4.70001 19.2083 4.98334 19.0666L10 16.4166L15.025 19.0583C15.15 19.1249 15.275 19.1499 15.4083 19.1499C15.5833 19.1499 15.75 19.0999 15.9 18.9916C16.1583 18.8083 16.2833 18.4916 16.2333 18.1749L15.275 12.5833L19.3417 8.62494C19.5583 8.40827 19.6417 8.08327 19.5417 7.78327Z" fill="#575757"/>
</svg>
