<svg width="16" height="16" viewBox="0 0 16 16" fill="none" xmlns="http://www.w3.org/2000/svg">
<path d="M7.99974 0.0664062C3.62641 0.0664062 0.0664062 3.62641 0.0664062 7.99974C0.0664062 12.3731 3.62641 15.9331 7.99974 15.9331C12.3731 15.9331 15.9331 12.3731 15.9331 7.99974C15.9331 3.62641 12.3731 0.0664062 7.99974 0.0664062ZM11.7597 10.9064C11.9931 11.1397 11.9931 11.5197 11.7597 11.7531C11.6397 11.8731 11.4864 11.9264 11.3331 11.9264C11.1797 11.9264 11.0264 11.8664 10.9064 11.7531L7.99974 8.84641L5.09307 11.7531C4.97307 11.8731 4.81974 11.9331 4.66641 11.9331C4.51307 11.9331 4.35974 11.8731 4.23974 11.7597C4.00641 11.5264 4.00641 11.1464 4.23974 10.9131L7.15307 7.99974L4.23974 5.09307C4.00641 4.85974 4.00641 4.47974 4.23974 4.24641C4.47307 4.01307 4.85307 4.01307 5.08641 4.24641L7.99974 7.15307L10.9064 4.24641C11.1397 4.01307 11.5197 4.01307 11.7531 4.24641C11.9864 4.47974 11.9864 4.85974 11.7531 5.09307L8.84641 7.99974L11.7597 10.9064Z" fill="#999999"/>
</svg>

