<svg width="24" height="24" viewBox="0 0 24 24" fill="none" xmlns="http://www.w3.org/2000/svg">
<path d="M23.6396 23.6396C23.4596 23.8196 23.2296 23.8996 22.9996 23.8996C22.7696 23.8996 22.5396 23.8096 22.3596 23.6396L18.0296 19.3096C17.5696 19.6996 17.0696 20.0496 16.5396 20.3696C14.9096 21.3396 13.0196 21.8996 10.9896 21.8996C4.98961 21.8996 0.0996094 17.0096 0.0996094 10.9996C0.0996094 4.98961 4.98961 0.0996094 10.9996 0.0996094C17.0096 0.0996094 21.8996 4.98961 21.8996 10.9996C21.8996 13.0296 21.3296 14.9196 20.3696 16.5496L19.0496 15.2296C19.7196 13.9596 20.0996 12.5296 20.0996 10.9996C20.0996 5.97961 16.0196 1.89961 10.9996 1.89961C5.97961 1.89961 1.89961 5.97961 1.89961 10.9996C1.89961 16.0196 5.97961 20.0996 10.9996 20.0996C12.5296 20.0996 13.9696 19.7196 15.2296 19.0496C15.7696 18.7596 16.2896 18.4196 16.7596 18.0396C17.2196 17.6596 17.6496 17.2296 18.0296 16.7696L19.2996 18.0396L23.6296 22.3696C23.9896 22.7096 23.9896 23.2896 23.6396 23.6396ZM5.89961 10.9996C5.89961 8.18961 8.18961 5.89961 10.9996 5.89961C11.4996 5.89961 11.8996 5.49961 11.8996 4.99961C11.8996 4.49961 11.4996 4.09961 10.9996 4.09961C7.19961 4.09961 4.09961 7.19961 4.09961 10.9996C4.09961 11.4996 4.49961 11.8996 4.99961 11.8996C5.49961 11.8996 5.89961 11.4996 5.89961 10.9996Z" fill="#575757"/>
</svg>

