<svg width="24" height="24" viewBox="0 0 24 24" fill="none" xmlns="http://www.w3.org/2000/svg">
<path d="M16.05 12C16.05 14.23 14.24 16.05 12 16.05C9.76 16.05 7.95 14.23 7.95 12C7.95 9.77 9.77 7.95 12 7.95C14.23 7.95 16.05 9.77 16.05 12ZM23.25 12C23.25 13.55 22.36 14.16 21.71 14.61C21.29 14.9 20.96 15.13 20.75 15.63C20.54 16.13 20.62 16.53 20.71 17.03C20.85 17.8 21.05 18.86 19.95 19.96C18.85 21.06 17.79 20.86 17.02 20.72C16.52 20.63 16.12 20.55 15.62 20.76C15.12 20.97 14.89 21.3 14.6 21.72C14.15 22.37 13.54 23.26 11.99 23.26C10.44 23.26 9.83 22.37 9.38 21.72C9.09 21.3 8.86 20.97 8.36 20.76C7.86 20.55 7.46 20.63 6.96 20.72C6.19 20.86 5.12 21.06 4.03 19.96C2.93 18.86 3.13 17.8 3.27 17.03C3.36 16.53 3.44 16.13 3.23 15.63C3.02 15.13 2.69 14.9 2.27 14.61C1.63 14.16 0.75 13.55 0.75 12C0.75 10.45 1.64 9.84 2.29 9.39C2.71 9.1 3.04 8.87 3.25 8.37C3.46 7.87 3.38 7.47 3.29 6.97C3.14 6.2 2.94 5.14 4.04 4.04C5.14 2.94 6.2 3.14 6.97 3.28C7.47 3.37 7.87 3.45 8.37 3.24C8.87 3.03 9.1 2.71 9.39 2.28C9.84 1.63 10.45 0.75 12 0.75C13.55 0.75 14.16 1.64 14.61 2.29C14.9 2.71 15.13 3.04 15.63 3.25C16.17 3.47 16.56 3.4 17.07 3.32C17.78 3.2 18.76 3.03 19.82 3.92C21.05 4.96 20.85 6.15 20.72 6.93C20.63 7.46 20.56 7.89 20.76 8.38C20.97 8.88 21.3 9.11 21.72 9.4C22.37 9.84 23.25 10.45 23.25 12ZM17.95 12C17.95 8.72 15.28 6.05 12 6.05C8.72 6.05 6.05 8.72 6.05 12C6.05 15.28 8.72 17.95 12 17.95C15.28 17.95 17.95 15.28 17.95 12Z" fill="#7B7B7B"/>
</svg>
