<svg width="16" height="16" viewBox="0 0 16 16" fill="none" xmlns="http://www.w3.org/2000/svg">
<path d="M7.95321 0.606445C3.89321 0.606445 0.586548 3.91311 0.586548 7.97311C0.586548 12.0331 3.89321 15.3398 7.95321 15.3398C12.0132 15.3398 15.3199 12.0331 15.3199 7.97311C15.3199 3.91311 12.0132 0.606445 7.95321 0.606445ZM7.95321 13.9398C4.65988 13.9398 1.98655 11.2598 1.98655 7.97311C1.98655 4.68645 4.66655 2.00645 7.95321 2.00645C11.2399 2.00645 13.9199 4.68645 13.9199 7.97311C13.9199 11.2598 11.2399 13.9398 7.95321 13.9398ZM11.5332 9.97978C11.4065 10.2064 11.1665 10.3398 10.9199 10.3398C10.8065 10.3398 10.6865 10.3131 10.5799 10.2531L7.60655 8.59311C7.38655 8.46645 7.24655 8.23311 7.24655 7.97978V4.01311C7.24655 3.62645 7.55988 3.31311 7.94655 3.31311C8.33321 3.31311 8.64655 3.62645 8.64655 4.01311V7.56645L11.2599 9.02645C11.6065 9.21311 11.7265 9.63978 11.5332 9.97978Z" fill="#575757"/>
</svg>
