<svg width="16" height="16" viewBox="0 0 16 16" fill="none" xmlns="http://www.w3.org/2000/svg">
<path d="M11.0803 0.966553C9.94029 0.966553 8.74029 1.49989 8.00029 2.53322C7.26029 1.49989 6.05363 0.966553 4.92029 0.966553C2.37363 0.966553 0.300293 3.03989 0.300293 5.58655C0.300293 6.74655 0.733626 7.85322 1.53363 8.71989C2.26029 9.69322 6.96696 14.3399 7.50696 14.8732C7.64029 15.0066 7.82029 15.0732 8.00029 15.0732C8.18029 15.0732 8.35363 15.0066 8.49363 14.8732C9.03363 14.3399 13.7336 9.70655 14.467 8.72655C15.267 7.86655 15.7003 6.75322 15.7003 5.58655C15.7003 3.03989 13.627 0.966553 11.0803 0.966553Z" fill="#7B7B7B"/>
</svg>
