<svg width="20" height="20" viewBox="0 0 20 20" fill="none" xmlns="http://www.w3.org/2000/svg">
<path d="M12.1996 10C12.1996 11.2167 11.2163 12.2 9.99964 12.2C8.78298 12.2 7.79964 11.2167 7.79964 10C7.79964 8.78333 8.78298 7.8 9.99964 7.8C11.2163 7.8 12.1996 8.78333 12.1996 10ZM19.483 10.4833C19.3413 10.7 15.9413 15.75 9.99964 15.75C4.05798 15.75 0.657975 10.7 0.516309 10.4833C0.324642 10.1917 0.324642 9.80833 0.516309 9.51667C0.657975 9.3 4.05798 4.25 9.99964 4.25C15.9413 4.25 19.3413 9.30833 19.483 9.525C19.6746 9.80833 19.6746 10.1917 19.483 10.4833ZM13.7913 10C13.7913 7.90833 12.0913 6.20833 9.99964 6.20833C7.90798 6.20833 6.20798 7.90833 6.20798 10C6.20798 12.0917 7.90798 13.7917 9.99964 13.7917C12.0913 13.7917 13.7913 12.0917 13.7913 10Z" fill="#7B7B7B"/>
</svg>
