<svg width="20" height="20" viewBox="0 0 20 20" fill="none" xmlns="http://www.w3.org/2000/svg">
<path d="M5.91675 5.41664V4.5833C5.91675 2.3333 7.75008 0.499969 10.0001 0.499969C12.2501 0.499969 14.0834 2.3333 14.0834 4.5833V5.41664C14.0834 7.66664 12.2501 9.49997 10.0001 9.49997C7.75008 9.49997 5.91675 7.66664 5.91675 5.41664ZM13.3334 10.5H6.66675C3.50008 10.5 0.916748 13.0833 0.916748 16.25V17.0833C0.916748 18.4166 2.00008 19.5 3.33341 19.5H16.6667C18.0001 19.5 19.0834 18.4166 19.0834 17.0833V16.25C19.0834 13.0833 16.5001 10.5 13.3334 10.5Z" fill="#575757"/>
</svg>
