<svg width="17" height="20" viewBox="0 0 17 20" fill="none" xmlns="http://www.w3.org/2000/svg">
<path d="M3.92855 1.42871C3.73105 1.42871 3.57141 1.58871 3.57141 1.78585V3.21443C3.57141 3.41157 3.73105 3.57157 3.92855 3.57157C4.12605 3.57157 4.2857 3.41157 4.2857 3.21443V1.78585C4.2857 1.58871 4.12605 1.42871 3.92855 1.42871Z" fill="#333333"/>
<path d="M15.3571 0H1.42857C0.640714 0 0 0.640714 0 1.42857V18.2143V18.5714C0 19.3593 0.640714 20 1.42857 20H14.6429C15.2336 20 15.7143 19.5193 15.7143 18.9286V17.7914C16.1289 17.6436 16.4286 17.2507 16.4286 16.7857V1.07143C16.4286 0.480714 15.9479 0 15.3571 0ZM15 18.9286C15 19.1254 14.84 19.2857 14.6429 19.2857H1.42857C1.03464 19.2857 0.714286 18.9654 0.714286 18.5714C0.714286 18.1268 1.21036 17.8571 1.42857 17.8571H15V18.9286ZM15.7143 16.7857C15.7143 16.9825 15.5543 17.1429 15.3571 17.1429H4.28571V4.64286C4.28571 4.44571 4.12607 4.28571 3.92857 4.28571C3.73107 4.28571 3.57143 4.44571 3.57143 4.64286V17.1429H1.42857C1.20821 17.1429 0.95 17.2225 0.714286 17.3689V1.42857C0.714286 1.03464 1.03464 0.714286 1.42857 0.714286H15.3571C15.5543 0.714286 15.7143 0.874643 15.7143 1.07143V16.7857Z" fill="#333333"/>
<path d="M2.50002 1.42871H1.78573C1.58823 1.42871 1.42859 1.58871 1.42859 1.78585C1.42859 1.983 1.58823 2.143 1.78573 2.143H2.50002C2.69752 2.143 2.85716 1.983 2.85716 1.78585C2.85716 1.58871 2.69752 1.42871 2.50002 1.42871ZM2.50002 3.21443H1.78573C1.58823 3.21443 1.42859 3.37443 1.42859 3.57157C1.42859 3.76871 1.58823 3.92871 1.78573 3.92871H2.50002C2.69752 3.92871 2.85716 3.76871 2.85716 3.57157C2.85716 3.37443 2.69752 3.21443 2.50002 3.21443ZM2.50002 5.00014H1.78573C1.58823 5.00014 1.42859 5.16014 1.42859 5.35728C1.42859 5.55442 1.58823 5.71443 1.78573 5.71443H2.50002C2.69752 5.71443 2.85716 5.55442 2.85716 5.35728C2.85716 5.16014 2.69752 5.00014 2.50002 5.00014ZM2.50002 6.78585H1.78573C1.58823 6.78585 1.42859 6.94585 1.42859 7.143C1.42859 7.34014 1.58823 7.50014 1.78573 7.50014H2.50002C2.69752 7.50014 2.85716 7.34014 2.85716 7.143C2.85716 6.94585 2.69752 6.78585 2.50002 6.78585ZM2.50002 8.57157H1.78573C1.58823 8.57157 1.42859 8.73157 1.42859 8.92871C1.42859 9.12585 1.58823 9.28585 1.78573 9.28585H2.50002C2.69752 9.28585 2.85716 9.12585 2.85716 8.92871C2.85716 8.73157 2.69752 8.57157 2.50002 8.57157ZM2.50002 10.3573H1.78573C1.58823 10.3573 1.42859 10.5173 1.42859 10.7144C1.42859 10.9116 1.58823 11.0716 1.78573 11.0716H2.50002C2.69752 11.0716 2.85716 10.9116 2.85716 10.7144C2.85716 10.5173 2.69752 10.3573 2.50002 10.3573ZM2.50002 12.143H1.78573C1.58823 12.143 1.42859 12.303 1.42859 12.5001C1.42859 12.6973 1.58823 12.8573 1.78573 12.8573H2.50002C2.69752 12.8573 2.85716 12.6973 2.85716 12.5001C2.85716 12.303 2.69752 12.143 2.50002 12.143ZM2.50002 13.9287H1.78573C1.58823 13.9287 1.42859 14.0887 1.42859 14.2859C1.42859 14.483 1.58823 14.643 1.78573 14.643H2.50002C2.69752 14.643 2.85716 14.483 2.85716 14.2859C2.85716 14.0887 2.69752 13.9287 2.50002 13.9287ZM2.50002 15.7144H1.78573C1.58823 15.7144 1.42859 15.8744 1.42859 16.0716C1.42859 16.2687 1.58823 16.4287 1.78573 16.4287H2.50002C2.69752 16.4287 2.85716 16.2687 2.85716 16.0716C2.85716 15.8744 2.69752 15.7144 2.50002 15.7144ZM14.2857 11.4287C13.8918 11.4287 13.5714 11.1084 13.5714 10.7144V9.28585V8.24657C13.5714 8.04907 13.4118 7.88942 13.2143 7.88942C13.0779 7.88942 12.9632 7.96835 12.9032 8.08085C12.6825 7.94121 12.4229 7.85728 12.1429 7.85728H11.7857C10.9979 7.85728 10.3572 8.498 10.3572 9.28585V10.7144C10.3572 11.5023 10.9979 12.143 11.7857 12.143H12.1429C12.5714 12.143 12.9522 11.9494 13.2143 11.6494C13.4764 11.9494 13.8572 12.143 14.2857 12.143C14.4832 12.143 14.6429 11.9834 14.6429 11.7859C14.6429 11.5884 14.4832 11.4287 14.2857 11.4287ZM12.8572 10.7144C12.8572 11.1084 12.5368 11.4287 12.1429 11.4287H11.7857C11.3918 11.4287 11.0714 11.1084 11.0714 10.7144V9.28585C11.0714 8.89192 11.3918 8.57157 11.7857 8.57157H12.1429C12.5368 8.57157 12.8572 8.89192 12.8572 9.28585V10.7144ZM7.97716 5.94657C7.92823 5.80121 7.7918 5.70335 7.63895 5.70335C7.48609 5.70335 7.3493 5.80085 7.30073 5.94657L5.37216 11.6609C5.30895 11.8473 5.4093 12.0501 5.59645 12.1134C5.63395 12.1262 5.67287 12.1323 5.71037 12.1323C5.8593 12.1323 5.99859 12.0384 6.04859 11.8891L6.69359 9.97871C6.71145 9.98157 6.72752 9.98942 6.74609 9.98942H8.5318C8.55037 9.98942 8.56645 9.98157 8.5843 9.97871L9.22895 11.8891C9.2918 12.0759 9.4943 12.1773 9.68145 12.1134C9.86823 12.0501 9.96895 11.8476 9.90573 11.6609L7.97716 5.94657ZM6.93073 9.27514L7.63859 7.17764L8.34645 9.27514H6.93073Z" fill="#333333"/>
</svg>

