<svg width="12" height="12" viewBox="0 0 12 12" fill="none" xmlns="http://www.w3.org/2000/svg">
<path d="M6.0007 0.719727C4.60036 0.719727 3.25737 1.27601 2.26718 2.2662C1.27699 3.25639 0.720703 4.59938 0.720703 5.99973C0.720703 7.40007 1.27699 8.74306 2.26718 9.73325C3.25737 10.7234 4.60036 11.2797 6.0007 11.2797C7.40105 11.2797 8.74404 10.7234 9.73423 9.73325C10.7244 8.74306 11.2807 7.40007 11.2807 5.99973C11.2807 4.59938 10.7244 3.25639 9.73423 2.2662C8.74404 1.27601 7.40105 0.719727 6.0007 0.719727V0.719727Z" stroke="#333333" stroke-width="0.48" stroke-miterlimit="10" stroke-linecap="round" stroke-linejoin="round"/>
<path d="M3.22185 10.367L6.05289 7.52856C6.86553 8.0232 7.70049 8.0976 8.33913 7.45896C8.92377 6.87432 9.58113 5.4504 9.28857 4.6104L8.02257 5.8764C7.84785 6.05136 7.56441 6.05136 7.38969 5.8764L6.12369 4.6104C5.94897 4.43568 5.94897 4.15224 6.12369 3.97752L7.38969 2.71152C6.54993 2.41896 5.12601 3.07632 4.54113 3.66096C3.90273 4.29936 3.97713 5.13432 4.47153 5.94672L1.63281 8.77824" stroke="#333333" stroke-width="0.48" stroke-miterlimit="10" stroke-linejoin="round"/>
</svg>
