<svg width="20" height="20" viewBox="0 0 20 20" fill="none" xmlns="http://www.w3.org/2000/svg">
<path fill-rule="evenodd" clip-rule="evenodd" d="M2.52166 2.15822C2.52166 1.18106 3.42669 0.000340889 4.55079 0.000340889L17.2316 0.00180501C17.2764 -0.000443888 18.6253 -0.0588382 19.4281 0.717194C19.8247 1.10046 20.0168 1.61329 19.9988 2.24167C19.9951 2.37683 19.8833 2.48443 19.7466 2.48468L18.9522 2.48615V18.2023C18.9522 18.2277 18.9479 18.2527 18.9403 18.2769C18.882 18.4616 18.3454 20.082 17.3689 19.9888L2.63719 19.9898C2.55959 19.9962 2.47466 20 2.38441 20C1.51233 20 0.146165 19.6533 0.0106761 18.2774C-0.000698899 18.1625 -0.000450166 13.0301 0.000308166 12.9881C0.00334149 12.8524 0.115827 12.7441 0.253086 12.7441H0.253579L2.50784 12.7505L2.52166 2.15822ZM17.244 0.501545L4.55129 0.500081C3.73052 0.500081 3.02722 1.4122 3.02722 2.15875L3.0134 12.934L3.01599 12.9428C3.02165 12.9619 3.0273 12.981 3.02722 13.0018C3.02718 13.0223 3.02158 13.0411 3.01599 13.0599L3.0134 13.0687L3.00698 17.9734C3.0588 18.2533 3.03006 18.7605 2.61399 19.0231C2.57177 19.0498 2.52473 19.0626 2.47822 19.0626C2.3948 19.0626 2.31322 19.0217 2.26494 18.947C2.18986 18.8308 2.22416 18.6762 2.34196 18.602C2.58488 18.4486 2.50737 18.0533 2.50636 18.0496C2.50257 18.0323 2.50093 18.0151 2.50093 17.9973L2.50735 13.2497L0.505371 13.2444C0.505371 14.2565 0.506927 18.065 0.514258 18.2384C0.65278 19.6406 2.53559 19.4986 2.61547 19.4911L17.3921 19.4901C17.8519 19.5386 18.2889 18.6365 18.4466 18.1628V2.48668L10.105 2.50034C9.96545 2.50034 9.85246 2.3889 9.85221 2.25098C9.85196 2.11306 9.96471 2.00089 10.1045 2.00064L19.4869 1.98503C19.454 1.61375 19.3163 1.30877 19.0761 1.07591C18.4331 0.452782 17.2551 0.500296 17.244 0.501545ZM7.5774 2.00073C7.43787 2.00073 7.32463 2.11266 7.32463 2.25058C7.32463 2.3885 7.43787 2.50043 7.5774 2.50043H8.84129C8.98082 2.50043 9.09407 2.3885 9.09407 2.25058C9.09407 2.11266 8.98082 2.00073 8.84129 2.00073H7.5774ZM4.03849 4.37419C4.03849 4.30523 4.09511 4.24927 4.16488 4.24927H9.97876C10.0485 4.24927 10.1051 4.30523 10.1052 4.37419C10.1052 4.44315 10.0485 4.49912 9.97876 4.49912H4.16488C4.09511 4.49912 4.03849 4.44315 4.03849 4.37419ZM10.7367 4.24927C10.667 4.24927 10.6104 4.30523 10.6104 4.37419C10.6104 4.44315 10.667 4.49912 10.7367 4.49912H14.2756C14.3454 4.49912 14.402 4.44315 14.402 4.37419C14.402 4.30523 14.3454 4.24927 14.2756 4.24927H10.7367ZM14.9076 4.37419C14.9076 4.30523 14.9643 4.24927 15.034 4.24927H17.8146C17.8843 4.24927 17.941 4.30523 17.941 4.37419C17.941 4.44315 17.8843 4.49912 17.8146 4.49912H15.034C14.9643 4.49912 14.9076 4.44315 14.9076 4.37419ZM4.16488 5.74829C4.09511 5.74829 4.03849 5.80426 4.03849 5.87322C4.03849 5.94217 4.09511 5.99814 4.16488 5.99814H8.71487C8.78464 5.99814 8.84126 5.94217 8.84126 5.87322C8.84126 5.80426 8.78464 5.74829 8.71487 5.74829H4.16488ZM9.34652 5.87322C9.34652 5.80426 9.40314 5.74829 9.47291 5.74829H17.8146C17.8843 5.74829 17.9409 5.80426 17.9409 5.87322C17.9409 5.94217 17.8843 5.99814 17.8146 5.99814H9.47291C9.40314 5.99814 9.34652 5.94217 9.34652 5.87322ZM4.16488 7.74699C4.09511 7.74699 4.03849 7.80295 4.03849 7.87191V11.8695C4.03849 11.9385 4.09511 11.9944 4.16488 11.9944H8.4621C8.53186 11.9944 8.58849 11.9385 8.58849 11.8695V8.62146C8.58849 8.5525 8.53186 8.49654 8.4621 8.49654C8.39233 8.49654 8.33571 8.5525 8.33571 8.62146V11.7446H4.29127V7.99684H7.70376C7.77353 7.99684 7.83015 7.94087 7.83015 7.87191C7.83015 7.80296 7.77353 7.74699 7.70376 7.74699H4.16488ZM9.85229 8.37159C9.85229 8.30263 9.90892 8.24666 9.97868 8.24666H17.8148C17.8846 8.24666 17.9412 8.30263 17.9412 8.37159C17.9412 8.44055 17.8846 8.49651 17.8148 8.49651H9.97868C9.90892 8.49651 9.85229 8.44055 9.85229 8.37159ZM9.97868 9.99593C9.90892 9.99593 9.85229 10.0519 9.85229 10.1209C9.85229 10.1898 9.90892 10.2458 9.97868 10.2458H17.8148C17.8846 10.2458 17.9412 10.1898 17.9412 10.1209C17.9412 10.0519 17.8846 9.99593 17.8148 9.99593H9.97868ZM9.85229 11.8697C9.85229 11.8008 9.90892 11.7448 9.97868 11.7448H17.8148C17.8846 11.7448 17.9412 11.8008 17.9412 11.8697C17.9412 11.9387 17.8846 11.9946 17.8148 11.9946H9.97868C9.90892 11.9946 9.85229 11.9387 9.85229 11.8697ZM4.16488 13.7435C4.09511 13.7435 4.03849 13.7995 4.03849 13.8684C4.03849 13.9374 4.09511 13.9933 4.16488 13.9933H12.001C12.0707 13.9933 12.1274 13.9374 12.1274 13.8684C12.1274 13.7995 12.0707 13.7435 12.001 13.7435H4.16488ZM13.1384 13.8684C13.1384 13.7995 13.195 13.7435 13.2648 13.7435H17.562C17.6318 13.7435 17.6884 13.7995 17.6884 13.8684V17.866C17.6884 17.935 17.6318 17.9909 17.562 17.9909H14.2759C14.2062 17.9909 14.1495 17.935 14.1495 17.866C14.1495 17.797 14.2062 17.7411 14.2759 17.7411H17.4356V13.9933H13.3912V17.3663C13.3912 17.4353 13.3346 17.4912 13.2648 17.4912C13.1951 17.4912 13.1384 17.4353 13.1384 17.3663V13.8684ZM4.16488 15.4924C4.09511 15.4924 4.03849 15.5483 4.03849 15.6173C4.03849 15.6862 4.09511 15.7422 4.16488 15.7422H12.001C12.0707 15.7422 12.1274 15.6862 12.1274 15.6173C12.1274 15.5483 12.0707 15.4924 12.001 15.4924H4.16488ZM4.03849 17.3661C4.03849 17.2972 4.09511 17.2412 4.16488 17.2412H12.001C12.0707 17.2412 12.1274 17.2972 12.1274 17.3661C12.1274 17.4351 12.0707 17.4911 12.001 17.4911H4.16488C4.09511 17.4911 4.03849 17.4351 4.03849 17.3661Z" fill="#333333"/>
</svg>

