<svg width="24" height="24" viewBox="0 0 24 24" fill="none" xmlns="http://www.w3.org/2000/svg">
<path d="M15.9 13H7.9C4.1 13 1 16.1 1 19.9V23.8H22.8V19.9C22.8 16.1 19.7 13 15.9 13ZM21 22H2.8V19.9C2.8 17.09 5.09 14.8 7.9 14.8H15.9C18.71 14.8 21 17.09 21 19.9V22Z" fill="#575757"/>
<path d="M11 11.71V9.85C9.73 9.46 8.8 8.29 8.8 6.9V5.9C8.8 4.19 10.19 2.8 11.9 2.8C13.61 2.8 15 4.19 15 5.9V6.9C15 8.29 14.07 9.46 12.8 9.85V11.71C15.07 11.29 16.8 9.29 16.8 6.9V5.9C16.8 3.2 14.6 1 11.9 1C9.2 1 7 3.2 7 5.9V6.9C7 9.29 8.73 11.29 11 11.71Z" fill="#575757"/>
</svg>

