<svg width="20" height="19" viewBox="0 0 20 19" fill="none" xmlns="http://www.w3.org/2000/svg">
<path fill-rule="evenodd" clip-rule="evenodd" d="M17.227 0.607989C17.337 0.246865 17.655 0.0254361 17.9998 0.00165849C18.1142 -0.00577201 18.2301 0.0120612 18.3446 0.0492138L18.3564 0.0254361C18.3624 0.0269223 18.3654 0.0321237 18.3683 0.037325L18.3683 0.0373308V0.0373342C18.3713 0.0425325 18.3743 0.0477286 18.3802 0.0492138C18.3862 0.051443 18.3921 0.0503284 18.3981 0.0492137C18.404 0.0480992 18.4099 0.0469846 18.4159 0.0492138L18.404 0.0729914C18.884 0.234977 19.1322 0.741738 18.9509 1.20243H18.9628L18.9509 1.22621L15.194 12.6157V12.6395C14.7437 13.7823 14.7541 14.6621 14.9919 15.3739C15.2297 16.0858 15.7112 16.643 16.264 17.074C17.3697 17.9374 18.725 18.251 18.725 18.251C18.9093 18.2986 19.0296 18.4724 19.0088 18.6612C18.988 18.8499 18.832 18.9941 18.6418 19H11.3777C10.3404 19 9.581 18.7206 9.08316 18.2629C8.58531 17.8052 8.36983 17.181 8.36983 16.5985C8.36983 15.2387 9.21988 14.1375 10.2126 13.3053C11.1444 12.5236 12.2159 11.9692 12.9827 11.6408L17.2151 0.643655C17.2211 0.637711 17.224 0.628794 17.227 0.619877V0.607989ZM18.1662 0.76263C18.1454 0.759658 18.1261 0.756685 18.1068 0.750741C18.0622 0.731422 17.9582 0.761144 17.9403 0.833963C17.9374 0.845851 17.9329 0.85774 17.9284 0.869629L13.7674 11.7003L14.5996 12.0095L18.2376 0.96474C18.2405 0.952851 18.245 0.940962 18.2494 0.929073C18.2688 0.88449 18.239 0.780463 18.1662 0.76263ZM6.12283 1.53525C4.94286 1.53525 3.8803 2.1505 3.23385 3.14024C3.00499 3.14024 2.8534 3.17145 2.66318 3.24724L3.19818 3.85357C3.25539 3.83425 3.30109 3.82608 3.34679 3.81791L3.34679 3.81791C3.39249 3.80973 3.43819 3.80156 3.4954 3.78224H3.68562L3.76884 3.62769C4.22508 2.79101 5.13606 2.26047 6.08716 2.26047C7.30428 2.26047 8.37428 3.10161 8.67893 4.28157L8.75026 4.57879H9.1307C9.85295 4.57879 10.4266 5.07366 10.6168 5.72012H11.4134C11.2231 4.69322 10.3835 3.8937 9.35659 3.81791C8.86172 2.44772 7.60596 1.53525 6.12283 1.53525ZM0.677761 2.26052C0.692622 2.25607 0.708969 2.25161 0.725316 2.24863C0.765441 2.24566 0.805566 2.25012 0.844204 2.26052C0.867982 2.26647 0.893246 2.2739 0.915537 2.2843C0.924454 2.29173 0.931885 2.29916 0.939315 2.30808C0.964579 2.317 0.988356 2.32888 1.01065 2.34375C1.01956 2.35563 1.027 2.36752 1.03443 2.37941C1.04334 2.38684 1.05077 2.39427 1.0582 2.40319L5.96829 8.35949C6.00693 8.35206 6.04705 8.3476 6.08718 8.3476C6.50626 8.3476 6.84806 8.68941 6.84806 9.10849C6.84806 9.52757 6.50626 9.86937 6.08718 9.86937C5.6681 9.86937 5.32629 9.52757 5.32629 9.10849C5.32629 9.01338 5.34115 8.92718 5.37385 8.84693L3.70941 6.82583H0.832316L2.62753 18.2391H8.56005C8.78891 18.5438 9.09208 18.8098 9.51116 19H2.28275C2.09253 19 1.94095 18.8425 1.90231 18.6909L9.77759e-05 6.51672L7.29158e-05 6.49866C-0.000149326 6.39127 -0.000354297 6.29222 0.0714307 6.18384C0.147222 6.10804 0.26611 6.06495 0.38054 6.06495H3.09119L1.97364 4.70962C1.77005 4.99198 1.62441 5.32487 1.55753 5.6845H0.796649C0.876899 5.09749 1.13399 4.57439 1.49809 4.13896L0.463762 2.87874C0.377568 2.7762 0.350818 2.63502 0.395401 2.5087C0.438498 2.38238 0.546984 2.28727 0.677761 2.26052ZM4.98149 6.06477L5.58782 6.82566H11.342L10.4266 12.6512C10.7312 12.4223 10.9898 12.2321 11.2945 12.0805L12.1742 6.51655L12.1743 6.49847C12.1745 6.3909 12.1747 6.29111 12.1029 6.21933C12.0271 6.1049 11.9082 6.06477 11.7938 6.06477H4.98149ZM14.3499 12.7227L13.2918 12.3304C12.5785 12.635 11.5516 13.173 10.7001 13.8878C9.79948 14.6443 9.13073 15.5612 9.13073 16.5985C9.13073 17.0057 9.26597 17.401 9.59439 17.7041C9.82325 17.9137 10.1561 18.092 10.6406 18.1797C10.3746 17.8394 10.2527 17.4203 10.2483 17.0146C10.2364 15.9788 10.8264 14.9236 11.449 14.2802C11.5144 14.2103 11.6036 14.1687 11.6987 14.1613C11.8592 14.1464 12.0123 14.2356 12.0792 14.3827C12.146 14.5298 12.1133 14.7037 11.9959 14.8152C11.5144 15.313 11.0017 16.2879 11.0092 17.0027C11.0136 17.3594 11.1221 17.6313 11.3777 17.8468C11.6333 18.0623 12.0925 18.2391 12.8638 18.2391H13.1016C12.947 18.092 12.8163 17.936 12.7212 17.7636C12.3823 17.1573 12.3972 16.4915 12.5309 15.9803C12.5681 15.8153 12.7078 15.6949 12.8757 15.683C13.0005 15.6741 13.1209 15.7261 13.1997 15.8242C13.2784 15.9208 13.3037 16.0501 13.268 16.1705C13.1729 16.5346 13.1729 17.0012 13.3869 17.3831C13.6009 17.7651 14.0245 18.1173 14.9681 18.2391H16.8228C16.7276 18.1901 16.6336 18.1458 16.54 18.1018C16.2906 17.9843 16.0446 17.8684 15.7885 17.6685C15.1524 17.1721 14.5639 16.5019 14.2667 15.6117C13.9992 14.8107 13.9843 13.8373 14.3499 12.7227Z" fill="#575757"/>
</svg>

